{"glyphs":{":":{"x_min":0,"x_max":299,"ha":299,"o":"m 165 -5 q 162 -8 158 -10 q 153 -11 148 -11 q 144 -11 139 -9 q 134 -7 131 -4 l 69 60 q 66 63 64 67 q 63 72 63 77 q 63 82 65 86 q 67 91 70 94 l 135 157 q 137 159 142 161 q 146 162 152 162 q 157 162 162 160 q 166 159 169 156 l 229 92 q 232 89 233 85 q 235 81 235 75 q 235 71 233 66 q 231 61 228 58 z m 165 279 q 162 276 158 274 q 153 273 148 273 q 144 273 139 275 q 134 277 131 280 l 69 344 q 66 347 64 351 q 63 355 63 361 q 63 365 65 370 q 67 375 70 378 l 135 441 q 138 444 142 445 q 146 447 152 447 q 157 447 161 445 q 166 443 169 440 l 229 376 q 232 373 233 369 q 235 364 235 359 q 235 354 233 350 q 231 345 228 342 z"},"$":{"x_min":0,"x_max":541,"ha":541,"o":"m 281 24 q 341 30 373 65 q 406 101 406 160 q 406 212 377 243 q 349 275 281 298 z m 241 434 l 241 645 q 190 645 161 617 q 132 589 132 541 q 132 503 156 479 q 180 455 241 434 z m 241 -15 q 161 -10 98 21 q 35 53 35 80 q 35 88 36 95 q 36 102 37 105 l 50 187 q 53 206 57 211 q 62 217 70 217 q 86 217 88 186 q 89 156 95 137 q 110 87 150 55 q 190 24 241 23 l 241 311 q 134 342 93 382 q 51 422 51 490 q 51 567 106 622 q 161 677 241 678 l 241 764 l 281 764 l 281 679 q 352 671 406 647 q 459 622 459 603 q 459 597 458 591 q 458 585 456 581 l 438 513 q 435 499 431 495 q 427 490 419 490 q 413 490 408 493 q 404 495 404 499 q 404 503 404 510 q 405 516 405 517 q 405 567 371 603 q 336 639 281 644 l 281 422 q 392 392 440 340 q 489 289 489 202 q 489 110 433 52 q 377 -5 281 -13 l 281 -137 l 241 -137 z"},"?":{"x_min":0,"x_max":383,"ha":383,"o":"m 170 -4 q 167 -7 163 -8 q 158 -10 153 -10 q 148 -10 144 -8 q 139 -6 136 -3 l 74 61 q 71 64 70 68 q 68 73 68 78 q 68 83 70 87 q 72 92 75 95 l 139 158 q 141 160 146 162 q 150 163 156 163 q 161 163 165 161 q 170 159 173 156 l 234 93 q 237 90 239 86 q 240 82 240 76 q 240 72 238 67 q 236 62 233 59 z m 122 323 q 122 358 161 449 q 199 541 199 582 q 199 614 183 631 q 167 648 137 648 q 107 648 82 625 q 57 603 51 603 q 47 603 44 606 q 41 610 41 615 q 41 643 86 676 q 130 709 187 709 q 246 709 281 677 q 317 646 317 595 q 317 540 237 441 q 225 427 219 419 q 186 378 175 353 q 163 328 163 303 q 163 293 165 279 q 167 265 167 262 q 167 256 164 253 q 160 249 155 249 q 143 249 132 271 q 122 294 122 323 z"},"<":{"x_min":0,"x_max":833,"ha":833,"o":"m 704 484 l 248 298 l 704 112 l 704 23 l 129 259 l 129 337 l 704 574 z"},"'":{"x_min":0,"x_max":175,"ha":175,"o":"m 78 418 l 42 642 q 42 646 41 650 q 41 654 41 661 q 41 687 53 700 q 65 714 87 714 q 110 714 122 700 q 134 687 134 661 q 134 653 134 649 q 133 645 133 642 l 97 418 z"},"=":{"x_min":0,"x_max":833,"ha":833,"o":"m 709 238 l 709 157 l 124 157 l 124 238 z m 709 440 l 709 358 l 124 358 l 124 440 z"},"a":{"x_min":0,"x_max":459,"ha":459,"o":"m 294 48 q 249 17 206 2 q 164 -13 119 -13 q 77 -13 53 12 q 30 37 30 83 q 30 148 86 186 q 143 224 280 249 q 280 252 280 259 q 281 266 281 269 q 281 334 257 365 q 232 396 181 396 q 153 396 143 386 q 132 376 132 350 l 132 342 q 132 316 114 305 q 96 294 58 294 q 45 294 41 299 q 36 305 36 320 q 36 364 87 397 q 138 430 213 430 q 263 430 300 417 q 337 404 361 378 q 374 363 379 341 q 385 319 385 260 l 385 112 q 385 69 391 61 q 397 53 419 53 q 423 53 429 54 q 435 55 438 55 q 443 55 448 52 q 452 48 452 43 q 452 28 423 10 q 393 -7 363 -7 q 342 -7 325 7 q 308 21 294 48 z m 281 219 q 205 204 172 177 q 138 151 138 106 q 138 77 153 62 q 168 48 199 48 q 243 48 262 62 q 281 77 281 117 l 281 126 z"},"L":{"x_min":0,"x_max":571,"ha":571,"o":"m 118 535 q 118 583 112 603 q 105 624 90 638 q 81 646 69 651 q 57 656 36 659 l 35 659 q 4 665 4 681 q 4 691 10 697 q 17 702 29 702 q 33 702 76 698 q 120 694 159 694 q 217 694 281 701 q 297 703 301 703 q 310 703 315 698 q 320 693 320 684 q 320 677 316 672 q 312 667 297 662 q 296 662 292 660 q 274 652 265 644 q 250 631 244 613 q 238 595 238 545 l 238 141 q 238 76 254 62 q 270 49 317 49 q 367 49 416 65 q 464 81 495 107 q 516 125 532 152 q 548 178 557 178 q 563 178 568 172 q 572 167 572 158 q 572 139 561 105 q 549 72 533 49 q 513 20 480 6 q 448 -8 400 -8 q 379 -8 317 -3 q 255 1 214 1 q 163 1 110 -3 q 57 -8 56 -8 q 44 -8 38 -3 q 31 1 31 10 q 31 20 36 25 q 41 31 58 39 q 59 40 66 43 q 73 46 78 49 q 99 62 108 85 q 118 108 118 143 z"},"3":{"x_min":0,"x_max":541,"ha":541,"o":"m 304 408 l 316 408 q 388 408 426 368 q 465 328 465 253 q 465 139 386 63 q 308 -13 192 -13 q 128 -13 78 15 q 27 42 27 69 q 27 76 31 79 q 35 83 42 83 q 42 83 86 56 q 130 29 175 29 q 252 29 301 81 q 350 133 350 217 q 350 273 323 306 q 296 338 250 338 q 230 338 210 333 q 189 329 188 329 q 183 329 180 333 q 177 337 177 344 q 177 355 201 367 q 223 377 235 386 q 273 414 292 447 q 311 480 311 517 q 311 562 283 592 q 255 621 212 621 q 167 621 125 588 q 83 555 78 555 q 72 555 69 558 q 66 561 66 567 q 66 597 128 639 q 189 681 262 681 q 327 681 369 646 q 410 610 410 555 q 410 515 386 481 q 361 447 304 408 z"},";":{"x_min":0,"x_max":299,"ha":299,"o":"m 165 281 q 162 278 158 277 q 154 276 148 276 q 144 276 139 278 q 134 280 131 283 l 69 347 q 66 350 64 354 q 63 358 63 363 q 63 368 65 373 q 67 378 70 381 l 135 443 q 138 446 142 448 q 146 449 152 449 q 157 449 161 447 q 166 445 169 442 l 229 378 q 232 375 233 371 q 235 367 235 362 q 235 357 233 352 q 231 347 228 344 z m 126 2 q 126 37 93 67 q 60 97 60 103 q 60 115 97 150 q 134 186 154 186 q 174 186 200 151 q 227 117 227 75 q 227 36 208 -3 q 188 -42 151 -77 q 126 -102 104 -116 q 81 -131 70 -131 q 62 -131 58 -128 q 54 -125 54 -119 q 54 -117 90 -77 q 126 -37 126 2 z"},"J":{"x_min":0,"x_max":354,"ha":354,"o":"m 127 535 q 127 585 121 604 q 115 624 100 638 q 91 646 79 651 q 67 656 45 659 l 44 659 q 13 665 13 681 q 13 691 20 697 q 26 702 39 702 q 41 702 84 698 q 128 694 169 694 q 227 694 285 702 q 296 703 299 703 q 307 703 311 698 q 315 693 315 683 q 315 676 312 671 q 308 667 296 661 q 295 661 293 660 q 278 652 270 644 q 258 631 253 613 q 248 594 248 545 l 248 77 q 248 32 234 -8 q 220 -48 189 -90 q 154 -138 119 -163 q 84 -187 51 -187 q 16 -187 -5 -172 q -26 -158 -26 -133 q -26 -91 -18 -65 q -10 -39 2 -39 q 15 -39 45 -74 q 75 -110 89 -110 q 109 -110 118 -85 q 127 -60 127 -1 z"},"V":{"x_min":0,"x_max":760,"ha":760,"o":"m 359 -6 l 103 591 q 91 620 79 633 q 67 646 49 653 q 43 655 33 658 q 4 667 4 684 q 4 693 9 698 q 14 702 25 702 q 32 702 41 701 q 51 701 63 699 q 91 696 116 694 q 142 693 167 693 q 197 693 224 695 q 251 697 277 701 q 279 701 283 702 q 290 703 292 703 q 299 703 305 698 q 310 692 310 684 q 310 670 284 659 q 278 657 274 655 q 255 646 246 634 q 238 622 238 601 q 238 591 241 579 q 244 567 253 544 l 401 188 q 404 179 408 174 q 413 169 416 169 q 420 169 424 173 q 427 177 430 184 l 573 507 q 582 527 587 548 q 592 568 592 586 q 592 614 578 632 q 564 650 538 658 q 532 660 520 662 q 489 668 489 683 q 489 693 494 698 q 500 703 511 703 q 517 703 531 702 q 546 700 552 700 q 554 700 557 699 q 603 693 631 693 q 651 693 682 698 q 690 700 694 700 q 700 702 705 702 q 710 703 714 703 q 724 703 729 699 q 733 695 733 686 q 733 670 707 659 q 704 657 701 656 q 694 653 684 637 q 673 621 662 596 l 394 -9 l 394 -10 q 388 -23 378 -23 q 372 -23 367 -19 q 363 -15 359 -6 z"},"\"":{"x_min":0,"x_max":339,"ha":339,"o":"m 242 418 l 206 642 q 206 646 205 650 q 205 654 205 661 q 205 686 218 700 q 230 714 252 714 q 274 714 286 700 q 299 687 299 662 q 299 656 297 645 q 297 643 297 642 l 261 418 z m 78 418 l 42 642 q 42 646 41 650 q 41 654 41 661 q 41 687 53 700 q 65 714 87 714 q 110 714 122 700 q 134 687 134 661 q 134 653 134 649 q 133 645 133 642 l 97 418 z"},"7":{"x_min":0,"x_max":541,"ha":541,"o":"m 363 572 l 187 572 q 159 572 146 565 q 132 559 122 541 q 116 531 109 513 q 98 486 86 486 q 77 486 72 491 q 67 496 67 506 q 67 515 70 531 q 73 547 77 562 l 102 653 q 105 665 110 668 q 114 672 126 672 l 433 672 q 459 672 466 667 q 472 661 472 643 q 472 605 461 564 q 450 522 421 454 l 408 424 q 304 184 304 112 q 304 79 312 39 q 320 -1 320 -8 q 320 -22 294 -32 q 268 -41 229 -41 q 198 -41 188 -22 q 178 -4 178 52 q 178 149 288 312 q 313 350 326 369 q 364 429 389 481 q 413 533 413 552 q 413 564 406 568 q 398 572 363 572 z"},"S":{"x_min":0,"x_max":546,"ha":546,"o":"m 78 55 l 46 199 q 44 205 43 210 q 42 216 42 217 q 42 230 46 235 q 51 240 62 240 q 73 240 85 207 q 97 174 112 147 q 143 92 188 60 q 233 29 281 29 q 341 29 379 65 q 418 102 418 161 q 418 235 270 299 l 254 306 l 253 307 q 56 391 56 520 q 56 601 112 656 q 168 711 253 711 q 296 711 343 694 q 390 677 403 677 q 417 677 429 683 q 442 690 445 690 q 455 690 459 685 q 463 680 463 668 q 463 663 462 651 q 461 640 461 633 q 461 608 468 564 q 475 520 475 504 q 475 492 472 487 q 468 483 460 483 q 445 483 436 515 q 426 548 409 577 q 383 619 340 644 q 296 669 248 669 q 200 669 168 641 q 137 613 137 571 q 137 530 167 501 q 197 473 277 442 q 286 438 305 432 q 403 394 434 364 q 463 335 479 296 q 494 256 494 209 q 494 108 433 45 q 373 -17 275 -17 q 235 -17 184 0 q 133 16 121 18 q 119 19 116 19 q 113 20 111 20 q 85 23 79 52 q 79 53 78 53 q 78 54 78 55 z"},"}":{"x_min":0,"x_max":500,"ha":500,"o":"m 281 571 l 281 473 q 281 394 309 364 q 336 334 414 327 l 414 294 q 337 288 309 258 q 281 228 281 148 l 281 50 q 281 -46 240 -83 q 199 -119 90 -119 l 85 -119 l 85 -91 q 148 -90 171 -65 q 194 -40 194 37 l 194 104 q 194 215 221 255 q 249 294 323 310 q 250 326 222 365 q 194 405 194 516 l 194 583 q 194 660 171 686 q 147 711 85 712 l 85 740 l 90 740 q 199 740 240 704 q 281 667 281 571 z"},"Z":{"x_min":0,"x_max":579,"ha":579,"o":"m 307 510 q 328 549 342 582 q 355 616 355 627 q 355 638 334 643 q 313 648 263 648 q 208 648 170 636 q 133 625 118 603 q 105 584 97 559 q 88 534 74 534 q 65 534 62 538 q 58 542 58 551 q 58 557 63 593 q 69 629 69 659 l 69 666 q 69 689 73 695 q 78 700 91 700 q 93 700 104 699 q 180 693 262 693 q 369 693 480 700 q 505 702 510 702 q 521 702 527 699 q 533 696 533 691 q 533 686 531 678 q 528 671 522 660 l 213 92 q 209 85 208 80 q 206 74 206 69 q 206 60 219 57 q 231 54 278 54 l 299 54 q 359 54 403 66 q 446 77 479 101 q 499 115 519 142 q 540 169 549 169 q 554 169 558 163 q 561 156 561 145 q 561 82 520 38 q 478 -6 411 -6 q 403 -6 374 -4 q 266 2 173 2 q 133 2 93 0 q 53 -3 52 -3 q 43 -3 40 0 q 36 2 36 9 q 36 17 49 38 q 55 47 58 53 z"},"x":{"x_min":0,"x_max":492,"ha":492,"o":"m 196 191 l 81 344 q 61 371 35 383 q 10 396 10 405 q 10 414 15 418 q 20 422 30 422 q 32 422 64 419 q 96 416 126 416 q 160 416 196 419 q 231 422 232 422 q 242 422 246 418 q 251 414 251 406 q 251 393 230 386 q 229 385 228 385 q 213 381 208 376 q 203 371 203 362 q 203 357 207 350 q 210 342 216 335 l 267 265 l 344 343 q 352 351 355 357 q 358 362 358 368 q 358 383 334 388 q 310 393 310 406 q 310 415 314 418 q 318 422 328 422 q 330 422 335 421 q 341 421 346 421 q 347 421 349 420 q 381 416 403 416 q 414 416 433 418 q 439 419 442 419 q 446 419 453 419 q 460 420 462 420 q 473 420 476 417 q 479 415 479 408 q 479 400 475 395 q 471 390 455 385 q 454 384 451 383 q 419 370 400 351 l 289 237 l 417 72 q 442 39 470 29 l 470 29 q 471 29 472 28 q 481 24 481 15 q 481 5 475 0 q 469 -4 454 -4 q 437 -4 402 0 q 366 3 348 3 q 325 3 298 0 q 271 -3 267 -3 q 254 -3 250 0 q 245 4 245 12 q 245 27 267 35 q 288 43 288 58 q 288 63 285 70 q 283 77 278 83 l 217 162 l 155 99 q 142 86 135 75 q 129 64 129 56 q 129 41 153 32 l 154 32 q 166 29 170 24 q 175 20 175 13 q 175 4 171 0 q 167 -3 156 -3 q 153 -3 132 -1 q 110 1 93 1 q 68 1 40 -2 q 31 -3 29 -3 q 15 -3 12 0 q 9 3 9 11 q 9 21 34 35 q 59 48 87 77 z"},")":{"x_min":0,"x_max":394,"ha":394,"o":"m 158 269 q 158 354 144 432 q 129 509 100 581 q 83 622 63 660 q 43 699 43 700 q 43 706 49 710 q 54 715 62 715 q 70 715 91 691 q 112 667 144 621 q 210 523 238 443 q 265 362 265 271 q 265 179 235 96 q 206 13 137 -83 q 98 -138 83 -151 q 69 -165 58 -165 q 52 -165 48 -161 q 44 -157 44 -151 q 44 -145 63 -112 q 82 -80 95 -47 l 96 -45 q 158 108 158 269 z"},"&":{"x_min":0,"x_max":836,"ha":836,"o":"m 583 62 q 534 25 470 5 q 407 -15 342 -15 q 209 -15 126 53 q 42 122 42 228 q 42 302 85 365 q 128 427 198 453 q 187 478 181 501 q 176 524 176 548 q 176 617 221 662 q 267 707 336 707 q 378 707 427 689 q 476 672 485 672 q 493 672 503 678 q 514 684 518 684 q 522 684 525 680 q 529 676 529 671 q 529 665 528 654 q 527 644 527 640 q 527 587 537 530 q 540 514 540 510 q 540 502 536 498 q 532 494 524 494 q 512 494 506 516 q 500 541 492 559 q 469 609 428 639 q 387 669 343 669 q 313 669 292 650 q 271 630 271 604 q 271 528 365 413 q 458 298 626 171 q 645 192 654 217 q 662 241 662 275 q 662 314 651 335 q 639 355 614 361 q 603 363 585 366 q 549 370 549 385 q 549 393 556 397 q 564 402 578 402 q 596 402 628 399 q 660 397 674 397 q 688 397 713 399 q 738 401 749 401 q 760 401 763 398 q 766 395 766 386 q 766 376 748 367 q 729 358 725 334 l 722 313 q 715 255 700 218 q 685 182 658 147 q 722 93 751 76 q 780 59 802 59 q 812 59 826 63 q 841 67 846 67 q 853 67 857 63 q 861 60 861 53 q 861 32 821 9 q 782 -13 736 -13 q 709 -13 679 1 q 648 15 583 62 z m 548 87 q 463 147 404 199 q 345 250 301 302 q 275 333 245 376 q 215 420 205 420 q 180 420 156 390 q 132 360 132 319 q 132 276 156 228 q 180 180 223 139 q 271 94 321 70 q 372 47 423 47 q 459 47 490 57 q 520 66 548 87 z"},"_":{"x_min":0,"x_max":500,"ha":500,"o":"m 500 -152 l 500 -236 l 0 -236 l 0 -152 z"},"v":{"x_min":0,"x_max":484,"ha":484,"o":"m 83 301 q 71 327 61 345 q 50 364 41 375 q 38 379 26 385 q 24 386 24 386 q 23 386 22 387 q 6 396 6 405 q 6 412 12 417 q 18 422 27 422 q 29 422 36 421 q 40 420 42 420 q 56 418 73 417 q 89 416 108 416 q 132 416 154 417 q 175 418 193 420 q 195 420 199 421 q 208 422 211 422 q 220 422 225 418 q 230 414 230 406 q 230 394 202 385 q 175 377 175 363 q 175 354 177 346 q 179 338 182 331 l 257 157 q 261 146 267 139 q 272 132 275 132 q 278 132 284 139 q 290 146 295 155 l 360 290 q 366 301 370 319 q 375 337 375 347 q 375 362 369 371 q 363 380 350 384 q 345 386 336 388 q 313 393 313 406 q 313 413 319 417 q 324 421 334 421 q 339 421 344 421 q 350 420 361 419 q 364 418 370 418 q 385 416 394 416 q 404 416 415 417 q 426 418 437 420 q 441 420 448 420 q 454 421 456 421 q 467 421 472 417 q 477 414 477 406 q 477 397 459 386 q 440 375 427 347 l 286 58 q 269 21 256 4 q 244 -12 235 -12 q 229 -12 223 -7 q 217 -1 212 10 z"},"O":{"x_min":0,"x_max":803,"ha":803,"o":"m 156 386 q 156 226 227 126 q 298 27 414 27 q 522 27 585 100 q 648 173 648 300 q 648 462 575 564 q 502 667 388 667 q 279 667 217 593 q 156 519 156 386 z m 28 340 q 28 500 137 607 q 246 714 412 714 q 569 714 672 612 q 775 510 775 356 q 775 194 666 87 q 557 -20 388 -20 q 232 -20 130 82 q 28 184 28 340 z"},"(":{"x_min":0,"x_max":394,"ha":394,"o":"m 230 282 q 230 197 244 119 q 259 42 288 -30 q 304 -71 325 -109 q 345 -147 345 -149 q 345 -155 339 -159 q 333 -164 325 -164 q 317 -164 297 -141 q 276 -118 244 -71 q 178 27 150 108 q 123 188 123 280 q 123 373 152 455 q 182 538 250 633 l 253 637 q 310 716 329 716 q 335 716 340 712 q 344 708 344 702 q 344 695 325 662 q 306 629 293 597 l 292 595 q 230 442 230 282 z"},"C":{"x_min":0,"x_max":720,"ha":720,"o":"m 30 327 q 30 401 54 470 q 79 540 124 594 q 173 652 239 683 q 304 713 380 713 q 474 713 575 663 q 597 652 602 652 q 613 652 621 667 q 628 683 637 683 q 654 683 655 649 q 655 642 655 638 q 657 586 664 531 q 670 477 670 474 q 670 465 667 460 q 663 456 656 456 q 644 456 628 488 q 612 519 594 545 q 551 605 490 639 q 430 673 364 673 q 271 673 212 594 q 152 514 152 387 q 152 331 167 278 q 182 224 209 180 q 248 118 299 86 q 350 54 413 54 q 462 54 512 75 q 562 95 605 133 q 617 144 636 166 q 654 188 665 188 q 671 188 675 184 q 678 180 678 173 q 678 160 660 135 q 642 109 612 80 q 561 31 497 6 q 434 -19 359 -19 q 212 -19 121 77 q 30 173 30 327 z"},"W":{"x_min":0,"x_max":1030,"ha":1030,"o":"m 380 177 q 382 172 384 169 q 386 167 389 167 q 392 167 394 169 q 396 171 398 175 l 506 406 q 508 409 509 415 q 510 421 510 428 q 510 433 509 437 q 508 441 507 445 l 454 589 q 442 622 433 636 q 423 651 413 655 q 409 657 401 659 q 376 668 376 683 q 376 693 380 697 q 384 700 396 700 q 402 700 410 699 q 418 699 428 697 q 448 695 468 694 q 487 693 507 693 q 532 693 556 695 q 581 697 601 700 q 603 700 607 701 q 614 702 616 702 q 624 702 628 697 q 633 692 633 685 q 633 677 626 671 q 620 665 608 663 q 594 660 587 650 q 581 640 581 621 q 581 605 585 584 q 590 562 597 542 l 718 208 q 720 203 723 200 q 726 197 728 197 q 732 197 735 200 q 739 204 741 210 l 846 506 q 854 530 859 550 q 863 569 863 585 q 863 614 851 632 q 839 650 816 658 q 812 659 804 661 q 777 668 777 684 q 777 694 782 698 q 787 702 801 702 q 809 702 818 701 q 827 701 837 699 q 843 698 854 697 q 884 693 901 693 q 920 693 951 698 q 959 700 963 700 q 970 702 975 702 q 980 703 984 703 q 994 703 998 699 q 1002 695 1002 685 q 1002 670 979 660 q 972 657 969 655 q 955 646 941 622 q 928 597 910 547 l 707 -9 q 705 -17 701 -20 q 697 -23 691 -23 q 686 -23 680 -18 q 675 -14 672 -6 l 540 356 q 539 359 537 361 q 536 363 534 363 q 531 363 529 361 q 526 359 525 356 l 357 -9 l 357 -10 q 351 -23 341 -23 q 335 -23 330 -18 q 325 -14 322 -6 l 104 589 q 95 614 77 632 q 59 649 33 657 q 15 663 9 668 q 3 674 3 683 q 3 693 8 698 q 13 702 24 702 q 31 702 40 701 q 48 701 59 699 q 63 699 73 698 q 119 693 147 693 q 181 693 230 698 q 242 700 247 700 q 249 700 254 701 q 267 702 270 702 q 276 702 281 697 q 286 691 286 685 q 286 675 259 659 q 232 644 232 610 q 232 598 236 580 q 240 562 247 542 z"},"A":{"x_min":0,"x_max":760,"ha":760,"o":"m 294 295 l 409 295 q 425 295 433 298 q 441 302 441 308 q 441 311 438 320 q 436 328 432 338 l 361 507 q 357 516 354 521 q 350 526 346 526 q 342 526 338 522 q 334 518 331 511 l 256 335 q 253 328 251 321 q 249 313 249 310 q 249 301 258 298 q 267 295 294 295 z m 116 137 l 368 704 l 368 705 q 374 718 384 718 q 389 718 394 713 q 399 708 403 700 l 658 104 q 670 75 684 61 q 697 47 718 40 q 722 39 729 37 q 731 36 732 36 l 732 36 q 755 29 755 12 q 755 0 752 -3 q 749 -7 737 -7 q 729 -7 682 -2 q 635 2 596 2 q 541 2 483 -6 q 472 -8 469 -8 q 462 -8 458 -2 q 453 4 453 13 q 453 23 476 34 q 478 35 479 36 q 505 46 515 59 q 525 72 525 91 q 525 101 522 113 q 520 124 515 135 l 487 202 q 476 229 465 237 q 453 245 418 245 l 407 245 l 277 245 q 234 245 221 236 q 208 228 199 202 l 172 126 q 168 115 166 107 q 164 99 164 92 q 164 70 181 56 q 198 42 233 35 q 233 35 234 34 q 235 34 238 34 q 260 30 267 25 q 273 21 273 12 q 273 1 267 -4 q 261 -9 250 -9 q 245 -9 202 -4 q 158 1 121 1 q 92 1 63 -3 q 35 -8 34 -8 q 23 -8 18 -3 q 12 2 12 12 q 12 26 34 35 q 47 40 54 44 q 70 55 83 73 q 96 92 116 137 z"},"f":{"x_min":0,"x_max":306,"ha":306,"o":"m 90 353 q 90 365 86 370 q 82 375 74 375 l 31 375 q 24 375 21 377 q 17 379 17 383 q 17 404 22 413 q 26 421 40 421 l 74 421 q 90 421 93 475 q 95 528 111 569 q 137 635 198 685 q 259 736 311 736 q 336 736 352 727 q 368 717 368 703 q 368 676 353 642 q 338 608 324 608 q 315 608 300 640 q 285 673 259 673 q 227 673 212 638 q 197 604 197 525 l 197 433 q 197 425 200 423 q 204 421 216 421 l 256 421 q 271 421 285 431 q 300 441 301 441 q 305 441 307 438 q 309 436 309 431 q 309 427 303 410 q 297 393 291 384 q 287 379 280 377 q 272 375 258 375 l 214 375 q 204 375 200 371 q 196 368 196 357 l 196 123 q 196 84 201 70 q 206 56 218 46 q 227 39 245 33 q 247 32 248 32 q 261 29 264 25 q 268 21 268 14 q 268 4 263 0 q 257 -5 246 -5 q 241 -5 211 -1 q 181 3 156 3 q 109 3 65 -4 q 57 -5 55 -5 q 47 -5 42 -1 q 37 3 37 10 q 37 15 41 20 q 44 24 54 30 l 55 31 q 90 54 90 97 l 90 115 z"},"Q":{"x_min":0,"x_max":803,"ha":803,"o":"m 156 389 q 156 230 227 132 q 298 33 414 33 q 522 33 585 105 q 648 178 648 304 q 648 464 575 565 q 502 667 388 667 q 279 667 217 594 q 156 520 156 389 z m 178 50 q 104 104 66 176 q 28 249 28 339 q 28 501 136 607 q 245 714 412 714 q 571 714 673 613 q 775 511 775 354 q 775 222 698 127 q 622 32 489 -1 q 556 -50 596 -70 q 636 -89 668 -89 q 696 -89 721 -76 q 746 -63 749 -63 q 754 -63 758 -67 q 761 -71 761 -77 q 761 -103 705 -139 q 649 -176 589 -176 q 554 -176 513 -159 q 472 -142 389 -87 q 375 -78 349 -60 q 256 4 226 4 q 200 4 179 -13 q 158 -31 148 -61 q 144 -73 140 -93 q 133 -125 117 -125 q 106 -125 102 -117 q 98 -108 98 -88 q 98 -40 119 -4 q 140 32 178 50 z"},"w":{"x_min":0,"x_max":700,"ha":700,"o":"m 79 301 q 70 325 58 345 q 47 365 38 375 q 34 380 19 387 q 4 395 4 405 q 4 412 10 417 q 16 422 24 422 q 26 422 32 421 q 35 420 37 420 q 51 418 68 417 q 84 416 103 416 q 115 416 128 417 q 141 417 160 418 q 170 419 179 420 q 188 421 197 421 q 205 421 208 417 q 212 414 212 406 q 212 394 190 385 q 169 377 169 363 q 169 357 171 349 q 172 341 176 331 l 241 162 q 245 152 250 146 q 254 140 258 140 q 262 140 267 146 q 272 153 279 165 l 325 247 q 331 257 333 267 q 336 276 336 287 q 336 294 335 302 q 333 309 331 315 l 315 355 q 311 365 304 372 q 297 379 281 387 q 280 388 279 388 q 261 398 261 408 q 261 414 267 418 q 273 422 282 422 q 284 422 291 421 q 294 420 297 420 q 309 418 323 417 q 337 416 353 416 q 364 416 376 417 q 389 417 411 418 q 424 419 437 420 q 449 421 460 421 q 469 421 474 417 q 478 414 478 406 q 478 394 451 385 q 424 376 424 363 q 424 355 426 348 q 427 340 431 331 l 496 168 q 500 159 505 153 q 509 147 512 147 q 518 147 523 161 q 526 167 527 169 l 582 290 q 589 306 593 321 q 597 335 597 345 q 597 360 591 370 q 584 379 571 384 q 568 385 564 386 q 561 387 557 387 q 543 390 540 393 q 536 397 536 405 q 536 414 542 417 q 547 421 565 421 q 571 421 587 419 q 590 419 591 419 q 595 418 601 418 q 618 416 627 416 q 637 416 655 418 q 661 419 663 419 q 667 419 670 420 q 674 420 679 420 q 688 420 691 417 q 695 414 695 406 q 695 393 683 388 q 670 382 668 380 q 661 373 651 354 q 641 336 623 297 l 496 17 q 489 1 483 -5 q 478 -12 473 -12 q 468 -12 462 -6 q 457 0 452 10 l 369 216 q 367 222 364 225 q 360 229 357 229 q 354 229 351 226 q 348 223 343 215 l 256 47 q 237 9 229 -1 q 222 -12 216 -12 q 210 -12 205 -6 q 199 0 195 10 z"},"-":{"x_min":0,"x_max":330,"ha":330,"o":"m 70 124 q 65 123 62 122 q 60 121 57 121 q 50 121 47 125 q 44 129 44 140 l 44 196 q 44 205 48 210 q 52 216 61 220 l 260 295 q 266 297 269 297 q 271 298 273 298 q 279 298 282 293 q 286 288 286 279 l 286 223 q 286 214 282 208 q 278 203 269 199 z"},"E":{"x_min":0,"x_max":584,"ha":584,"o":"m 112 535 q 112 585 106 604 q 100 624 85 638 q 76 646 64 651 q 52 656 30 659 l 29 659 q -2 665 -2 681 q -2 691 5 697 q 12 702 24 702 q 26 702 38 701 q 114 694 197 694 q 282 694 376 698 q 471 701 480 701 q 508 701 514 695 q 520 688 520 666 l 520 645 q 520 609 521 570 q 521 562 521 560 q 521 548 518 544 q 514 540 505 540 q 489 540 487 563 q 484 586 479 598 q 464 629 426 642 q 389 655 312 655 q 267 655 249 642 q 231 629 231 597 l 231 441 q 231 418 241 409 q 251 399 274 399 l 306 399 q 340 399 360 407 q 380 415 394 433 q 401 442 409 461 q 422 490 437 490 q 445 490 449 485 q 453 480 453 469 q 453 468 452 460 q 449 427 449 393 q 449 339 456 281 q 457 266 457 263 q 457 253 453 249 q 448 244 440 244 q 424 244 420 271 q 417 290 413 301 q 402 330 380 342 q 359 353 312 353 l 273 353 q 249 353 240 343 q 231 332 231 297 l 231 141 q 231 79 247 64 q 262 49 311 49 q 361 49 409 65 q 458 81 489 107 q 510 125 526 151 q 542 178 552 178 q 558 178 562 173 q 566 167 566 158 q 566 139 555 105 q 543 72 527 49 q 506 20 474 6 q 442 -8 395 -8 q 375 -8 312 -3 q 250 1 208 1 q 157 1 104 -3 q 51 -8 50 -8 q 39 -8 32 -3 q 26 1 26 10 q 26 20 31 25 q 36 31 53 39 q 56 41 62 44 q 68 47 72 49 q 93 62 102 85 q 112 108 112 143 z"},"s":{"x_min":0,"x_max":382,"ha":382,"o":"m 42 62 q 42 91 40 123 q 39 130 39 132 q 39 142 42 146 q 46 150 54 150 q 66 150 71 130 q 77 107 86 91 q 106 53 132 35 q 158 16 189 16 q 222 16 241 35 q 261 53 261 85 q 261 112 245 129 q 229 145 161 170 q 94 194 69 224 q 43 253 43 302 q 43 362 86 397 q 129 433 202 433 q 256 433 282 424 q 308 416 310 389 l 314 338 l 314 323 q 314 320 310 316 q 306 312 301 312 q 291 312 282 331 q 276 343 271 350 q 254 375 230 388 q 206 401 177 401 q 148 401 132 388 q 116 375 116 350 q 116 327 133 311 q 149 295 197 277 l 199 276 q 338 224 338 133 q 338 64 293 26 q 249 -13 170 -13 q 143 -13 93 -2 q 68 3 54 5 q 46 6 44 9 q 42 12 42 22 l 42 28 z"},">":{"x_min":0,"x_max":833,"ha":833,"o":"m 704 337 l 704 259 l 129 23 l 129 112 l 585 298 l 129 484 l 129 574 z"},"l":{"x_min":0,"x_max":267,"ha":267,"o":"m 81 582 l 81 592 q 81 620 77 631 q 73 642 64 648 q 57 652 42 654 q 42 654 41 654 q 28 654 24 657 q 20 661 20 669 q 20 679 25 683 q 31 688 53 692 q 63 693 75 696 q 87 698 100 703 q 122 710 147 725 q 172 739 179 739 q 186 739 189 734 q 193 729 193 720 q 193 720 190 666 q 187 612 187 559 l 187 123 q 187 84 192 70 q 197 56 209 46 q 218 39 236 33 q 238 32 239 32 q 252 28 256 25 q 259 21 259 14 q 259 4 253 0 q 248 -5 237 -5 q 232 -5 202 -1 q 172 3 147 3 q 101 3 55 -4 q 47 -5 45 -5 q 37 -5 32 -1 q 27 3 27 10 q 27 19 43 29 l 44 30 l 44 30 q 81 53 81 97 l 81 115 z"},"8":{"x_min":0,"x_max":541,"ha":541,"o":"m 179 319 q 154 319 131 285 q 109 250 109 201 q 109 123 154 73 q 198 23 269 23 q 339 23 379 56 q 419 88 419 146 q 419 190 392 220 q 365 250 300 276 q 282 283 253 294 q 190 319 179 319 z m 137 540 q 137 514 151 494 q 164 474 196 454 q 226 435 255 424 q 284 413 302 413 q 346 413 373 441 q 400 469 400 517 q 400 573 361 609 q 323 644 261 644 q 205 644 171 615 q 137 587 137 540 z m 148 342 q 104 369 82 405 q 60 441 60 487 q 60 570 122 625 q 184 680 279 680 q 365 680 419 636 q 473 592 473 523 q 473 472 442 438 q 411 404 350 388 q 429 362 465 315 q 502 267 502 191 q 502 99 434 43 q 367 -13 254 -13 q 153 -13 91 38 q 28 90 28 172 q 28 231 58 273 q 87 315 148 342 z"},"\\":{"x_min":0,"x_max":278,"ha":278,"o":"m 53 685 l 316 -93 l 265 -93 l 2 685 z"},"e":{"x_min":0,"x_max":457,"ha":457,"o":"m 167 270 l 237 270 q 286 270 301 275 q 317 280 317 302 q 317 345 290 373 q 262 402 221 402 q 182 402 156 370 q 130 338 130 292 q 130 279 137 274 q 145 270 167 270 z m 171 241 q 145 241 138 236 q 132 231 132 214 q 132 150 176 101 q 221 52 283 52 q 328 52 369 78 q 411 104 416 104 q 421 104 424 101 q 427 98 427 90 q 427 61 361 23 q 295 -15 219 -15 q 138 -15 84 43 q 30 102 30 192 q 30 296 87 364 q 145 431 234 431 q 313 431 369 381 q 425 330 425 267 q 425 250 419 246 q 414 241 386 241 z"},"b":{"x_min":0,"x_max":513,"ha":513,"o":"m 165 328 l 165 127 q 165 83 199 57 q 232 30 285 30 q 338 30 367 68 q 397 107 397 176 q 397 259 355 313 q 314 367 251 367 q 224 367 204 358 q 183 349 165 328 z m 60 85 l 60 592 q 60 620 56 631 q 52 642 43 648 q 36 652 21 654 q 21 654 20 654 q 7 654 3 657 q -1 661 -1 669 q -1 678 4 683 q 8 687 28 691 q 42 693 52 696 q 63 699 75 703 q 101 712 128 726 q 154 739 159 739 q 166 739 169 734 q 173 729 173 720 q 173 720 169 666 q 166 612 166 559 l 166 370 q 218 411 247 423 q 276 435 311 435 q 387 435 434 381 q 482 327 482 241 q 482 131 417 61 q 352 -10 253 -10 q 186 -10 130 25 q 118 33 114 33 q 106 33 92 12 q 78 -9 67 -9 q 62 -9 58 -6 q 54 -3 54 1 q 54 4 57 32 q 60 60 60 85 z"},"%":{"x_min":0,"x_max":823,"ha":823,"o":"m 529 219 q 529 131 556 79 q 583 27 627 27 q 666 27 686 57 q 707 87 707 144 q 707 230 680 283 q 652 336 608 336 q 570 336 550 305 q 529 274 529 219 z m 615 -3 q 539 -3 492 47 q 445 98 445 181 q 445 261 495 313 q 544 365 621 365 q 698 365 745 316 q 792 266 792 185 q 792 103 742 50 q 692 -3 615 -3 z m 199 -14 l 578 685 l 625 685 l 246 -14 z m 117 527 q 117 439 144 387 q 170 335 215 335 q 254 335 274 365 q 295 396 295 452 q 295 538 268 591 q 240 644 196 644 q 159 644 138 613 q 117 583 117 527 z m 203 305 q 126 305 80 355 q 33 406 33 489 q 33 569 83 621 q 132 673 209 673 q 286 673 333 624 q 380 574 380 493 q 380 411 330 358 q 280 305 203 305 z"},"m":{"x_min":0,"x_max":815,"ha":815,"o":"m 81 115 l 81 291 q 81 327 77 338 q 73 349 62 356 q 54 360 38 362 l 37 362 q 22 363 18 367 q 13 371 13 378 q 13 387 18 391 q 23 395 44 399 q 47 400 54 401 q 80 407 97 413 q 122 422 149 434 q 176 447 180 447 q 184 447 188 444 q 191 440 191 437 l 191 420 l 188 362 q 227 400 261 417 q 295 435 330 435 q 370 435 399 414 q 428 393 447 350 q 497 398 531 417 q 566 435 602 435 q 670 435 704 385 q 737 334 737 230 l 737 123 q 737 89 742 73 q 747 56 760 46 q 769 39 787 33 q 789 32 790 32 q 791 32 791 32 q 810 26 810 14 q 810 4 805 0 q 799 -5 788 -5 q 783 -5 753 -1 q 723 3 698 3 q 651 3 607 -4 q 601 -5 599 -5 q 592 -5 587 0 q 582 4 582 11 q 582 21 596 30 q 610 39 616 45 q 624 55 627 67 q 631 80 631 105 l 631 115 l 631 214 q 631 298 610 333 q 590 369 543 369 q 502 369 481 348 q 461 326 461 284 l 461 123 q 461 86 466 71 q 471 56 483 46 q 492 39 510 33 q 512 32 513 32 q 513 32 514 32 q 533 26 533 14 q 533 4 528 0 q 522 -5 511 -5 q 505 -5 476 -1 q 447 3 425 3 q 377 3 336 -4 q 330 -5 329 -5 q 322 -5 318 0 q 314 4 314 11 q 314 16 317 20 q 320 24 329 30 q 330 31 332 32 q 341 39 345 45 q 353 55 356 67 q 359 80 359 105 l 359 115 l 359 214 q 359 297 338 333 q 317 369 270 369 q 229 369 208 348 q 188 326 188 284 l 188 123 q 188 86 193 71 q 198 56 211 46 q 222 39 239 33 q 242 32 243 32 l 243 32 q 265 27 265 12 q 265 4 259 0 q 253 -5 242 -5 q 235 -5 205 -1 q 174 3 150 3 q 101 3 56 -4 q 49 -5 47 -5 q 39 -5 34 0 q 29 4 29 11 q 29 17 32 21 q 35 24 45 30 q 65 41 73 57 q 81 73 81 98 z"},"#":{"x_min":0,"x_max":769,"ha":769,"o":"m 477 419 l 343 419 l 297 290 l 431 290 z m 449 713 l 373 500 l 504 500 l 580 713 l 669 713 l 593 500 l 735 500 l 706 419 l 564 419 l 519 291 l 669 291 l 640 209 l 490 209 l 415 -3 l 325 -3 l 401 209 l 270 209 l 195 -3 l 105 -3 l 181 209 l 34 209 l 63 291 l 210 291 l 255 419 l 99 419 l 129 500 l 284 500 l 360 713 z"},",":{"x_min":0,"x_max":270,"ha":270,"o":"m 106 2 q 106 36 73 67 q 41 97 41 103 q 41 115 78 151 q 115 186 135 186 q 155 186 182 151 q 208 117 208 75 q 208 37 189 0 q 171 -38 134 -74 q 106 -101 84 -116 q 62 -131 50 -131 q 42 -131 39 -128 q 35 -125 35 -119 q 35 -117 71 -77 q 106 -37 106 2 z"},"n":{"x_min":0,"x_max":560,"ha":560,"o":"m 81 115 l 81 291 q 81 327 77 338 q 73 349 62 356 q 54 360 38 362 l 37 362 q 22 363 18 367 q 13 371 13 378 q 13 387 18 391 q 23 395 44 399 q 47 400 54 401 q 80 407 97 413 q 122 422 149 434 q 176 447 180 447 q 184 447 188 444 q 191 440 191 437 l 191 420 l 188 362 q 228 400 265 417 q 301 435 339 435 q 412 435 447 384 q 483 333 483 230 l 483 123 q 483 87 488 72 q 493 56 506 46 q 515 39 533 33 q 535 32 536 32 q 536 32 537 32 q 556 26 556 14 q 556 4 551 0 q 545 -5 534 -5 q 529 -5 499 -1 q 469 3 444 3 q 397 3 352 -4 q 344 -5 342 -5 q 334 -5 329 0 q 324 4 324 11 q 324 21 340 30 q 355 39 361 45 q 370 54 373 66 q 377 77 377 100 l 377 115 l 377 214 q 377 298 354 334 q 331 369 279 369 q 233 369 211 348 q 188 326 188 284 l 188 123 q 188 85 194 71 q 199 56 214 46 q 221 41 230 38 q 239 34 251 32 q 252 32 253 31 q 274 25 274 12 q 274 4 267 0 q 261 -5 249 -5 q 241 -5 208 -1 q 175 3 150 3 q 101 3 56 -4 q 49 -5 47 -5 q 39 -5 34 0 q 29 4 29 11 q 29 17 32 21 q 35 24 45 30 q 65 41 73 57 q 81 73 81 98 z"},"h":{"x_min":0,"x_max":560,"ha":560,"o":"m 81 115 l 81 581 q 81 617 77 629 q 73 640 62 647 q 54 651 38 653 l 37 653 q 22 654 18 658 q 13 662 13 669 q 13 678 18 682 q 23 686 44 690 q 60 692 72 695 q 84 698 97 703 q 124 712 150 725 q 176 738 179 738 q 186 738 189 732 q 193 726 193 715 q 193 711 192 694 q 188 624 188 560 l 188 362 q 228 399 264 417 q 301 435 339 435 q 411 435 448 384 q 484 333 484 230 l 484 123 q 484 84 489 70 q 494 56 506 46 q 515 39 533 33 q 535 32 536 32 q 549 29 552 25 q 556 21 556 14 q 556 4 551 0 q 545 -5 534 -5 q 529 -5 499 -1 q 469 3 444 3 q 397 3 352 -4 q 344 -5 342 -5 q 334 -5 329 0 q 324 4 324 11 q 324 17 327 21 q 331 25 341 30 q 342 31 344 32 q 355 39 361 45 q 371 55 374 69 q 378 83 378 115 l 378 214 q 378 297 354 333 q 331 369 279 369 q 233 369 211 348 q 188 326 188 284 l 188 123 q 188 85 194 71 q 199 56 214 46 q 221 41 230 38 q 239 34 251 32 q 252 32 253 31 q 274 25 274 12 q 274 4 267 0 q 261 -5 249 -5 q 241 -5 208 -1 q 175 3 150 3 q 101 3 56 -4 q 49 -5 47 -5 q 39 -5 34 0 q 29 4 29 11 q 29 17 32 21 q 35 24 45 30 q 65 41 73 57 q 81 73 81 98 z"},"z":{"x_min":0,"x_max":383,"ha":383,"o":"m 28 28 l 235 298 q 240 304 242 310 q 245 315 245 319 q 245 324 237 327 q 229 329 212 329 l 124 329 q 107 329 98 324 q 89 318 81 305 q 76 297 72 285 q 65 267 50 267 q 43 267 41 269 q 38 271 38 276 q 38 279 38 281 q 39 283 39 284 l 65 397 q 69 411 73 416 q 78 421 89 421 q 97 421 119 419 q 142 417 155 417 l 264 417 q 278 417 303 419 q 329 422 340 422 q 349 422 354 419 q 359 417 359 413 q 359 408 355 401 q 351 394 338 377 l 151 129 q 150 127 149 126 q 139 112 139 105 q 139 95 167 90 q 196 85 250 85 q 300 85 328 102 q 357 119 357 119 q 361 119 362 116 q 364 113 364 106 q 364 66 326 31 q 289 -5 239 -5 q 227 -5 178 0 q 130 4 94 4 q 67 4 40 1 q 34 1 33 1 q 26 1 23 4 q 19 6 19 11 q 19 17 25 24 q 27 26 28 28 z"},"B":{"x_min":0,"x_max":657,"ha":657,"o":"m 231 278 l 231 144 q 231 79 254 58 q 276 37 340 37 q 415 37 457 79 q 499 120 499 193 q 499 266 447 308 q 396 350 306 350 q 258 350 245 339 q 231 328 231 278 z m 231 445 q 231 412 250 402 q 269 392 344 392 q 406 392 433 417 q 459 442 459 502 q 459 573 415 617 q 370 660 299 660 q 261 660 246 642 q 231 624 231 569 z m 112 535 q 112 585 106 604 q 100 624 85 638 q 76 646 64 651 q 52 656 30 659 l 29 659 q -2 665 -2 681 q -2 691 5 697 q 12 702 24 702 q 26 702 36 701 q 97 695 161 695 q 188 695 247 698 q 307 702 339 702 q 450 702 512 656 q 575 610 575 530 q 575 478 548 443 q 520 408 462 387 q 534 383 580 333 q 625 284 625 209 q 625 163 606 120 q 588 78 555 49 q 521 19 476 5 q 431 -8 353 -8 q 319 -8 286 -6 q 253 -5 221 -2 q 213 -1 198 0 q 183 1 177 1 q 149 1 105 -3 q 93 -4 87 -5 q 75 -6 66 -7 q 57 -8 50 -8 q 39 -8 32 -3 q 26 1 26 10 q 26 20 31 25 q 36 31 53 39 q 56 41 62 44 q 68 47 72 49 q 93 62 102 85 q 112 108 112 143 z"},"K":{"x_min":0,"x_max":715,"ha":715,"o":"m 112 197 l 112 535 q 112 585 106 604 q 100 624 85 638 q 68 654 33 659 q -2 664 -2 681 q -2 690 5 696 q 12 702 24 702 q 27 702 71 698 q 114 694 154 694 q 203 694 263 700 q 272 701 276 701 q 278 701 283 702 q 293 703 296 703 q 305 703 310 698 q 315 693 315 684 q 315 677 311 672 q 307 667 292 662 q 291 662 289 661 q 269 653 259 644 q 245 631 239 614 q 233 597 233 554 l 233 545 l 233 378 q 233 360 235 355 q 237 350 243 350 q 247 350 252 353 q 257 355 262 360 l 376 468 q 439 528 476 573 q 512 618 512 636 q 512 646 506 653 q 499 660 488 662 q 484 663 476 664 q 453 666 453 686 q 453 694 458 697 q 462 700 473 700 q 486 700 522 697 q 559 694 581 694 q 606 694 639 698 q 671 701 679 701 q 692 701 698 697 q 703 693 703 683 q 703 667 678 661 q 659 655 647 649 q 627 639 591 610 q 554 581 514 543 l 407 441 q 396 431 391 423 q 386 416 386 411 q 386 405 390 396 q 394 388 402 378 l 589 125 q 609 97 627 78 q 645 59 659 49 q 674 38 693 33 q 712 29 712 18 q 712 5 707 0 q 701 -5 688 -5 q 674 -5 648 -2 q 623 1 611 1 q 599 1 581 -1 q 562 -4 556 -4 q 546 -4 535 4 q 524 12 514 26 l 307 315 q 301 323 299 325 q 296 327 294 327 q 292 327 288 324 q 284 321 278 316 l 246 288 q 239 282 236 273 q 233 263 233 242 l 233 192 l 233 172 q 233 111 241 88 q 249 64 268 51 q 274 46 282 43 q 291 40 302 38 l 303 38 q 331 31 331 14 q 331 1 326 -3 q 321 -8 309 -8 q 302 -8 261 -3 q 220 1 187 1 q 149 1 104 -3 q 58 -8 50 -8 q 39 -8 32 -3 q 26 1 26 10 q 26 19 31 25 q 36 31 53 39 q 54 40 57 41 q 76 50 85 59 q 100 73 106 94 q 112 116 112 165 z"},"R":{"x_min":0,"x_max":701,"ha":701,"o":"m 112 535 q 112 585 106 605 q 101 625 87 638 q 73 652 41 659 q 39 659 38 659 l 37 659 q 8 664 8 681 q 8 691 14 696 q 21 701 33 701 q 37 701 52 700 q 112 694 163 694 q 189 694 250 698 q 312 703 347 703 q 459 703 520 654 q 581 605 581 515 q 581 455 549 416 q 517 376 451 354 q 460 350 468 341 q 476 332 486 312 l 587 125 q 609 85 624 72 q 639 59 659 59 q 665 59 674 60 q 683 61 685 61 q 692 61 696 58 q 699 55 699 47 q 699 28 666 12 q 632 -5 593 -5 q 548 -5 510 34 q 472 74 423 174 l 417 186 q 364 297 348 311 q 337 320 324 324 q 310 328 275 328 q 250 328 241 321 q 233 313 233 293 l 233 146 q 233 106 244 82 q 254 58 277 46 q 284 42 299 39 q 301 38 302 38 l 303 38 q 331 31 331 14 q 331 2 326 -3 q 320 -8 307 -8 q 303 -8 263 -3 q 223 1 187 1 q 148 1 102 -3 q 55 -8 50 -8 q 39 -8 32 -3 q 26 1 26 10 q 26 20 31 25 q 36 31 53 39 q 56 41 62 44 q 68 47 72 49 q 93 62 102 85 q 112 108 112 143 z m 235 420 q 235 387 249 380 q 263 372 312 372 q 392 372 426 400 q 459 427 459 491 q 459 570 416 616 q 372 661 296 661 q 262 661 248 645 q 235 629 235 581 z"},"T":{"x_min":0,"x_max":695,"ha":695,"o":"m 286 596 q 286 627 276 635 q 265 642 220 642 q 145 642 114 630 q 84 619 71 589 q 62 569 54 540 q 45 506 26 506 q 18 506 14 511 q 10 517 10 528 q 10 531 13 547 q 23 606 27 661 q 29 689 34 696 q 40 702 56 702 q 62 702 118 699 q 173 696 221 696 l 458 696 q 508 696 566 698 q 625 701 634 701 q 659 701 665 696 q 670 690 672 672 l 680 570 l 680 561 q 680 545 678 542 q 675 539 666 539 q 648 539 642 563 q 636 583 630 595 q 617 621 589 631 q 562 641 494 641 l 486 641 q 432 641 421 633 q 410 624 410 593 l 410 146 q 410 104 423 82 q 435 59 464 46 q 473 42 493 39 q 494 38 495 38 l 497 38 q 529 30 529 13 q 529 2 522 -3 q 516 -8 503 -8 q 496 -8 448 -3 q 401 1 361 1 q 319 1 265 -4 q 211 -9 200 -9 q 187 -9 179 -3 q 172 2 172 12 q 172 28 202 35 l 202 35 q 205 36 215 39 q 225 42 231 44 q 259 56 273 80 q 286 104 286 143 z"},"P":{"x_min":0,"x_max":603,"ha":603,"o":"m 112 535 q 112 583 106 604 q 101 624 86 638 q 71 652 38 659 q 37 659 36 659 l 35 659 q 6 664 6 681 q 6 691 12 697 q 19 702 30 702 q 32 702 73 698 q 115 694 154 694 q 199 694 260 699 q 321 704 338 704 q 449 704 512 651 q 576 599 576 509 q 576 422 517 365 q 458 307 368 307 q 320 307 292 318 q 264 328 264 346 q 264 352 268 356 q 272 360 279 360 q 280 360 294 357 q 309 355 323 355 q 386 355 418 389 q 450 422 450 489 q 450 566 408 613 q 367 660 297 660 q 260 660 246 641 q 233 622 233 541 l 233 146 q 233 106 244 82 q 255 58 278 46 q 282 44 288 42 q 293 41 304 38 l 305 38 q 334 31 334 14 q 334 2 328 -3 q 322 -8 309 -8 q 306 -8 266 -3 q 225 1 187 1 q 148 1 102 -3 q 56 -8 50 -8 q 39 -8 32 -3 q 26 1 26 10 q 26 20 31 25 q 36 31 53 39 q 56 41 62 44 q 68 47 72 49 q 93 62 102 85 q 112 108 112 143 z"},"|":{"x_min":0,"x_max":500,"ha":500,"o":"m 294 764 l 294 -236 l 207 -236 l 207 764 z"},"t":{"x_min":0,"x_max":325,"ha":325,"o":"m 81 122 l 81 353 q 81 364 77 370 q 73 375 65 375 l 44 375 q 32 375 28 378 q 24 381 24 387 q 24 394 55 423 q 87 452 113 481 q 129 499 147 525 q 167 551 176 551 q 182 551 184 547 q 187 542 187 534 l 187 517 l 187 440 q 187 428 191 424 q 194 421 206 421 l 258 421 q 273 421 287 431 q 302 441 303 441 q 307 441 310 438 q 312 435 312 430 q 312 403 299 389 q 286 375 261 375 l 205 375 q 195 375 191 371 q 187 368 187 357 l 187 131 q 187 79 198 62 q 208 45 236 45 q 257 45 279 54 q 301 63 305 63 q 312 63 316 60 q 320 56 320 51 q 320 31 276 8 q 233 -15 183 -15 q 126 -15 104 13 q 81 41 81 122 z"},"M":{"x_min":0,"x_max":903,"ha":903,"o":"m 108 195 l 119 449 q 119 453 120 469 q 120 485 120 497 q 120 560 110 593 q 101 625 78 645 q 65 656 44 662 q 42 663 41 663 q 27 667 23 671 q 20 675 20 683 q 20 693 24 697 q 29 701 39 701 q 42 701 43 701 q 44 701 46 700 q 49 700 56 699 q 91 695 122 695 q 138 695 156 697 q 175 698 178 698 q 180 698 182 699 q 184 699 186 699 q 196 699 202 694 q 208 689 216 671 l 437 196 q 440 188 444 185 q 447 182 451 182 q 455 182 458 185 q 462 188 465 194 l 706 682 q 710 691 716 695 q 722 698 733 698 q 735 698 739 698 q 743 697 746 697 q 751 696 757 695 q 764 695 779 695 q 794 695 807 696 q 819 696 830 698 q 837 699 844 700 q 851 701 856 701 q 868 701 872 697 q 876 692 876 680 q 876 667 856 664 q 836 660 818 650 q 801 641 794 621 q 786 601 786 565 l 786 556 l 797 155 q 798 108 806 86 q 814 63 834 49 q 842 42 851 39 q 860 35 873 34 q 874 34 875 34 q 892 29 892 16 q 892 3 887 -1 q 882 -6 866 -6 q 862 -6 823 -2 q 785 1 750 1 q 715 1 676 -3 q 638 -7 634 -7 q 621 -7 615 -2 q 610 2 610 13 q 610 25 630 33 q 643 39 650 43 q 667 55 674 71 q 681 87 681 118 l 681 139 l 668 450 q 667 460 665 467 q 663 474 660 474 q 657 474 652 467 q 646 460 640 448 l 429 21 l 428 19 q 418 -2 406 -2 q 395 -2 387 16 q 385 20 384 22 l 189 452 q 188 453 188 455 q 181 471 175 471 q 171 471 169 465 q 167 458 166 445 l 157 197 l 157 178 l 157 154 q 157 104 168 80 q 179 55 204 42 q 212 39 229 35 q 231 34 232 34 q 249 32 254 27 q 259 21 259 11 q 259 1 254 -2 q 250 -6 235 -6 q 227 -6 209 -4 q 206 -4 204 -4 q 202 -4 198 -3 q 160 1 136 1 q 109 1 68 -4 q 60 -5 57 -5 q 55 -5 51 -5 q 36 -7 31 -7 q 25 -7 21 -1 q 16 5 16 14 q 16 26 43 37 l 44 37 q 45 38 49 39 q 69 48 78 56 q 91 68 98 101 q 105 134 108 195 z"},"g":{"x_min":0,"x_max":451,"ha":451,"o":"m 273 -44 l 200 -40 q 191 -40 183 -39 q 175 -39 167 -39 q 136 -39 124 -51 q 112 -63 112 -93 q 112 -128 139 -147 q 167 -167 216 -167 q 282 -167 316 -148 q 351 -130 351 -94 q 351 -69 333 -58 q 315 -46 273 -44 z m 130 286 q 130 234 152 201 q 175 168 210 168 q 248 168 271 197 q 294 226 294 274 q 294 333 271 368 q 248 402 209 402 q 170 402 150 372 q 130 342 130 286 z m 115 156 q 72 179 53 208 q 34 238 34 281 q 34 347 84 389 q 134 431 209 431 q 262 431 304 414 q 346 397 346 397 q 382 397 401 428 q 419 460 423 460 q 429 460 432 454 q 435 448 435 438 q 435 383 423 358 q 411 333 383 327 l 383 326 q 390 294 390 284 q 390 220 341 180 q 292 140 213 140 q 195 140 176 141 q 157 142 156 142 q 138 142 127 130 q 117 119 117 98 q 117 75 133 65 q 148 56 186 56 q 212 56 221 56 q 231 57 236 57 l 245 57 q 358 57 395 34 q 431 11 431 -47 q 431 -120 368 -159 q 305 -198 188 -198 q 109 -198 70 -176 q 31 -153 31 -109 q 31 -79 47 -61 q 63 -42 102 -30 q 82 -11 71 13 q 60 37 60 61 q 60 86 74 110 q 88 134 115 156 z"},"j":{"x_min":0,"x_max":269,"ha":269,"o":"m 70 597 q 70 612 97 646 q 125 680 139 680 q 153 680 179 648 q 204 615 204 600 q 204 584 177 554 q 150 524 137 524 q 121 524 95 553 q 70 583 70 597 z m 86 291 q 86 327 82 338 q 78 349 67 356 q 59 360 43 362 l 42 362 q 27 363 23 367 q 19 370 19 378 q 19 386 24 391 q 29 395 49 399 q 64 401 77 405 q 89 408 101 412 q 130 422 156 435 q 182 448 183 448 q 189 448 192 443 q 195 438 195 426 q 195 425 195 419 q 193 386 193 353 l 193 27 q 193 -8 184 -37 q 175 -66 153 -100 q 118 -155 87 -178 q 56 -202 20 -202 q -8 -202 -24 -192 q -40 -183 -40 -166 q -40 -133 -32 -108 q -23 -82 -12 -82 q 1 -82 21 -113 q 42 -144 57 -144 q 73 -144 80 -125 q 86 -106 86 -47 z"},"i":{"x_min":0,"x_max":274,"ha":274,"o":"m 65 597 q 65 613 94 647 q 124 682 134 682 q 145 682 172 649 q 199 616 199 600 q 199 584 171 553 q 144 523 132 523 q 117 523 91 553 q 65 583 65 597 z m 81 115 l 81 291 q 81 327 77 338 q 73 349 62 356 q 54 360 38 362 l 37 362 q 22 363 18 367 q 13 371 13 378 q 13 387 18 391 q 23 395 44 399 q 60 401 72 405 q 84 408 96 412 q 125 422 151 435 q 177 448 178 448 q 185 448 187 443 q 190 438 190 426 q 190 425 189 418 q 188 386 188 353 l 188 123 q 188 86 193 71 q 198 56 210 46 q 219 39 237 33 q 239 32 240 32 q 241 32 242 31 q 261 25 261 12 q 261 4 255 0 q 250 -5 239 -5 q 233 -5 204 -1 q 174 3 150 3 q 101 3 56 -4 q 49 -5 47 -5 q 39 -5 34 0 q 29 4 29 11 q 29 17 32 21 q 35 24 45 30 q 65 41 73 57 q 81 73 81 98 z"},"y":{"x_min":0,"x_max":461,"ha":461,"o":"m 208 21 l 51 334 q 34 369 12 385 q -10 400 -10 405 q -10 412 -4 417 q 2 422 11 422 q 13 422 20 421 q 23 420 26 420 q 39 418 55 417 q 72 416 92 416 q 115 416 135 417 q 155 418 172 420 q 175 420 180 421 q 188 422 191 422 q 203 422 208 418 q 214 415 214 406 q 214 395 189 386 q 188 385 187 385 q 170 380 165 375 q 159 371 159 363 q 159 354 161 345 q 163 337 166 331 l 254 157 q 261 143 265 138 q 269 134 272 134 q 275 134 282 142 q 290 151 293 160 l 341 287 q 346 300 349 314 q 352 328 352 341 q 352 358 347 368 q 342 378 331 383 q 326 385 313 387 q 289 391 289 403 q 289 413 295 417 q 300 421 319 421 q 325 421 330 421 q 335 420 347 419 q 350 419 361 417 q 373 416 380 416 q 388 416 397 417 q 405 418 416 420 q 420 420 425 420 q 430 421 432 421 q 443 421 448 417 q 454 413 454 406 q 454 400 435 387 q 416 374 403 341 l 201 -164 q 195 -179 184 -185 q 173 -191 149 -191 q 134 -191 128 -188 q 123 -186 123 -179 q 123 -171 130 -160 q 133 -156 135 -153 l 207 -36 q 212 -28 214 -21 q 216 -14 216 -7 q 216 -1 214 6 q 212 13 208 21 z"},"@":{"x_min":0,"x_max":986,"ha":986,"o":"m 637 402 l 662 485 l 746 485 l 662 184 l 661 181 q 654 152 654 137 q 654 113 665 100 q 675 87 694 87 q 710 87 735 98 q 759 108 780 125 q 833 168 862 233 q 891 299 891 378 q 891 514 798 598 q 705 681 552 681 q 467 681 391 649 q 315 618 258 559 q 198 498 168 419 q 138 341 138 245 q 138 161 167 95 q 196 30 255 -19 q 307 -62 375 -85 q 444 -108 523 -108 q 604 -108 680 -83 q 755 -58 828 -6 l 846 -29 q 774 -83 692 -111 q 611 -138 523 -138 q 431 -138 354 -115 q 276 -93 219 -50 q 146 5 107 85 q 68 166 68 262 q 68 361 110 448 q 152 535 232 601 q 298 655 377 683 q 457 711 546 711 q 716 711 818 619 q 920 527 920 374 q 920 296 891 229 q 862 161 809 113 q 779 86 746 73 q 713 59 681 59 q 633 59 607 85 q 580 110 577 159 q 546 108 510 84 q 474 60 429 60 q 364 60 325 105 q 287 150 287 226 q 287 281 311 333 q 335 385 380 428 q 413 460 452 477 q 491 493 531 493 q 575 493 602 470 q 629 447 637 402 z m 610 377 q 610 417 592 442 q 573 466 543 466 q 512 466 486 444 q 460 422 434 372 q 406 320 392 270 q 377 220 377 179 q 377 139 395 114 q 413 90 441 90 q 471 90 497 110 q 523 130 550 175 q 577 222 594 277 q 610 333 610 377 z"},".":{"x_min":0,"x_max":270,"ha":270,"o":"m 144 -4 q 141 -7 137 -8 q 132 -10 127 -10 q 123 -10 118 -8 q 113 -6 110 -3 l 48 61 q 45 64 43 68 q 42 73 42 78 q 42 83 44 87 q 46 92 49 95 l 113 158 q 116 161 120 162 q 124 163 130 163 q 135 163 139 161 q 144 159 147 156 l 208 93 q 211 90 212 86 q 214 82 214 76 q 214 72 212 67 q 210 62 207 59 z"},"p":{"x_min":0,"x_max":519,"ha":519,"o":"m 175 89 q 197 60 226 44 q 256 29 290 29 q 343 29 373 67 q 402 105 402 175 q 402 259 364 313 q 326 367 267 367 q 240 367 218 357 q 195 348 175 328 z m 67 -94 l 67 294 q 67 326 62 338 q 58 351 46 357 q 42 359 36 361 q 31 362 24 362 q 12 363 8 366 q 5 370 5 377 q 5 386 10 390 q 16 395 38 400 q 40 400 42 401 q 58 404 69 408 q 101 418 131 433 q 161 447 164 447 q 171 447 174 442 q 177 438 177 427 l 175 365 q 214 401 250 417 q 287 434 326 434 q 401 434 444 382 q 487 329 487 237 q 487 130 421 59 q 356 -13 262 -13 q 240 -13 219 -7 q 199 -1 175 12 l 175 -98 q 175 -118 182 -132 q 188 -146 202 -155 q 211 -162 230 -166 q 231 -166 232 -166 l 232 -166 q 256 -171 256 -185 q 256 -194 249 -199 q 243 -204 230 -204 q 229 -204 220 -203 q 170 -198 115 -198 q 81 -198 46 -203 q 40 -204 38 -204 q 31 -204 27 -199 q 23 -195 23 -188 q 23 -182 26 -177 q 30 -173 40 -167 q 44 -165 47 -163 q 50 -161 53 -158 q 61 -151 64 -140 q 67 -129 67 -104 z"},"X":{"x_min":0,"x_max":713,"ha":713,"o":"m 160 145 l 293 313 q 296 317 297 321 q 299 326 299 331 q 299 338 292 349 l 292 350 l 162 541 q 140 574 115 602 q 91 630 75 643 q 63 652 39 660 q 14 667 14 682 q 14 692 20 696 q 25 700 39 700 q 60 700 104 698 q 148 695 172 695 q 205 695 244 699 q 283 703 290 703 q 303 703 309 699 q 314 694 314 684 q 314 669 293 665 q 292 664 291 664 q 273 659 265 649 q 257 639 257 622 q 257 614 261 604 q 265 594 272 584 l 366 447 q 370 441 374 438 q 378 434 382 434 q 385 434 389 437 q 393 439 397 445 l 494 567 q 511 588 516 600 q 521 612 521 625 q 521 641 514 649 q 507 656 487 661 q 482 662 473 664 q 447 669 447 684 q 447 692 452 697 q 457 701 467 701 q 474 701 482 700 q 491 700 502 698 q 518 696 536 696 q 554 695 575 695 q 592 695 609 696 q 625 697 644 699 q 653 701 661 701 q 668 702 674 702 q 685 702 690 698 q 695 693 695 684 q 695 666 668 661 q 653 657 645 654 q 626 646 596 617 q 567 589 529 542 l 420 406 q 416 401 414 397 q 412 392 412 387 q 412 383 414 378 q 416 373 418 370 l 574 144 q 599 108 621 82 q 644 56 659 46 q 667 41 682 35 q 702 27 702 15 q 702 4 696 -1 q 689 -6 677 -6 q 662 -6 621 -2 q 581 2 556 2 q 521 2 482 -2 q 444 -7 441 -7 q 428 -7 420 -1 q 413 4 413 13 q 413 26 440 36 q 468 46 468 68 q 468 79 462 93 q 457 107 446 122 l 342 272 q 338 278 335 281 q 332 284 330 284 q 327 284 324 281 q 321 279 316 273 l 216 145 q 197 121 190 106 q 182 90 182 78 q 182 61 193 50 q 203 40 225 35 q 231 34 242 33 q 268 30 268 15 q 268 4 261 -1 q 253 -7 238 -7 q 233 -7 200 -3 q 167 1 138 1 q 111 1 77 -3 q 42 -7 34 -7 q 22 -7 15 -2 q 8 3 8 12 q 8 25 35 35 q 47 39 53 42 q 77 54 99 75 q 122 97 160 145 z"},"*":{"x_min":0,"x_max":500,"ha":500,"o":"m 257 494 l 257 491 q 257 450 277 405 q 297 360 297 347 q 297 327 284 314 q 271 301 249 301 q 227 301 215 313 q 202 326 202 347 q 202 361 222 404 q 241 448 241 487 l 241 495 q 204 472 169 425 q 134 378 108 378 q 92 378 77 395 q 63 412 63 431 q 63 449 79 463 q 94 477 116 478 q 121 479 131 479 q 194 483 233 508 q 188 533 130 537 q 124 537 120 537 q 94 540 79 552 q 63 565 63 584 q 63 604 77 621 q 90 637 108 637 q 136 637 171 589 q 206 540 243 520 l 243 523 q 243 564 223 609 q 202 655 202 668 q 202 688 215 701 q 229 713 250 713 q 272 713 285 701 q 298 688 298 668 q 298 654 278 610 q 258 566 258 527 l 258 519 q 295 542 330 589 q 365 636 391 636 q 408 636 422 619 q 437 603 437 584 q 437 566 421 552 q 406 539 384 537 q 380 537 371 536 q 304 531 266 506 q 310 481 365 479 q 373 479 377 478 q 405 476 421 463 q 437 450 437 430 q 437 410 423 394 q 409 378 391 378 q 364 378 330 426 q 295 474 257 494 z"},"Y":{"x_min":0,"x_max":659,"ha":659,"o":"m 269 197 l 269 268 q 269 293 256 315 l 255 317 l 110 585 q 96 611 79 631 q 62 650 47 657 q 40 660 24 663 q -5 669 -5 685 q -5 694 2 699 q 8 703 22 703 q 24 703 36 702 q 92 696 149 696 q 196 696 247 702 q 260 703 263 703 q 278 703 282 699 q 287 696 287 686 q 287 674 259 664 q 231 653 231 631 q 231 624 235 613 q 238 602 245 590 l 357 377 q 359 373 362 370 q 365 367 367 367 q 371 367 374 370 q 377 373 381 380 l 476 555 q 477 557 479 562 q 496 592 496 609 q 496 628 485 641 q 474 654 452 660 q 442 663 427 664 q 399 667 399 684 q 399 693 405 698 q 410 702 422 702 q 425 702 438 701 q 486 696 528 696 q 546 696 575 699 q 604 703 614 703 q 627 703 633 699 q 638 695 638 686 q 638 671 618 666 q 611 664 607 662 q 592 656 577 639 q 561 623 547 597 l 402 331 q 396 320 394 311 q 391 302 391 290 l 391 284 l 391 164 q 391 107 398 86 q 405 64 424 52 q 435 45 461 41 q 466 40 468 39 q 493 36 501 30 q 509 24 509 13 q 509 2 503 -3 q 497 -8 484 -8 q 476 -8 429 -3 q 382 1 343 1 q 302 1 249 -4 q 195 -9 183 -9 q 170 -9 162 -3 q 155 2 155 12 q 155 29 188 36 l 189 36 q 203 38 212 41 q 221 44 229 49 q 252 62 260 81 q 269 101 269 154 z"},"c":{"x_min":0,"x_max":458,"ha":458,"o":"m 30 188 q 30 290 101 361 q 171 432 268 432 q 322 432 363 408 q 403 383 403 358 q 403 340 375 317 q 347 295 331 295 q 320 295 314 318 q 312 329 309 335 q 298 364 278 377 q 258 391 227 391 q 179 391 154 358 q 129 325 129 262 q 129 167 170 109 q 212 52 279 52 q 324 52 370 78 q 415 104 418 104 q 425 104 427 101 q 430 98 430 90 q 430 63 365 24 q 300 -15 223 -15 q 136 -15 83 41 q 30 97 30 188 z"},"!":{"x_min":0,"x_max":328,"ha":328,"o":"m 172 -4 q 169 -7 165 -8 q 160 -10 155 -10 q 150 -10 145 -8 q 140 -6 137 -3 l 75 61 q 72 64 71 68 q 70 72 70 78 q 70 83 72 87 q 74 92 77 95 l 141 158 q 144 161 148 162 q 152 163 158 163 q 163 163 167 161 q 172 159 175 156 l 236 93 q 238 91 240 86 q 241 82 241 76 q 241 72 239 67 q 237 62 234 59 z m 150 275 l 104 647 q 103 653 103 659 q 102 665 102 669 q 102 692 126 700 q 150 708 216 708 q 227 708 233 703 q 240 697 240 688 q 240 685 239 677 q 238 669 237 660 l 180 272 q 179 262 175 257 q 171 251 166 251 q 153 251 150 274 z"},"/":{"x_min":0,"x_max":278,"ha":278,"o":"m 53 -93 l 2 -93 l 265 685 l 316 685 z"},"[":{"x_min":0,"x_max":394,"ha":394,"o":"m 350 694 l 350 655 l 264 655 q 245 655 237 647 q 230 639 230 613 l 230 -70 q 230 -96 237 -104 q 244 -112 264 -112 l 350 -112 l 350 -151 l 133 -151 l 133 694 z"},"6":{"x_min":0,"x_max":541,"ha":541,"o":"m 146 239 q 146 147 186 86 q 227 26 287 26 q 345 26 375 63 q 405 100 405 171 q 405 262 367 318 q 330 373 269 373 q 212 373 179 337 q 146 301 146 239 z m 170 373 q 215 405 254 419 q 293 433 334 433 q 415 433 463 378 q 511 324 511 232 q 511 125 443 56 q 374 -13 268 -13 q 160 -13 94 63 q 29 140 29 267 q 29 383 94 483 q 158 583 270 639 q 318 663 366 677 q 414 690 448 690 q 457 690 461 686 q 466 683 466 675 q 466 662 434 653 q 398 644 373 633 q 288 595 238 531 q 188 468 170 373 z"},"r":{"x_min":0,"x_max":374,"ha":374,"o":"m 81 115 l 81 291 q 81 327 77 338 q 73 349 62 356 q 54 360 38 362 l 37 362 q 22 363 18 367 q 13 371 13 378 q 13 387 18 391 q 23 395 44 399 q 47 400 54 401 q 80 407 97 413 q 122 422 149 434 q 176 447 180 447 q 184 447 188 443 q 191 440 191 437 l 191 420 l 188 339 q 219 383 246 406 q 272 429 291 429 q 314 429 342 406 q 370 383 370 364 q 370 346 352 314 q 334 283 321 283 q 313 283 287 304 q 261 325 241 325 q 214 325 201 300 q 188 275 188 222 l 188 123 q 188 85 194 71 q 199 56 214 46 q 221 41 230 38 q 239 34 251 32 q 252 32 253 31 q 274 25 274 12 q 274 4 267 0 q 261 -5 249 -5 q 241 -5 208 -1 q 175 3 150 3 q 101 3 56 -4 q 49 -5 47 -5 q 39 -5 34 0 q 29 4 29 11 q 29 17 32 21 q 35 24 45 30 q 65 41 73 57 q 81 73 81 98 z"},"2":{"x_min":0,"x_max":541,"ha":541,"o":"m 439 42 q 426 16 414 7 q 402 -2 371 -2 q 351 -2 267 3 q 183 8 120 8 q 90 8 62 0 q 56 -1 55 -1 q 47 -1 42 4 q 37 10 37 18 q 37 30 59 53 q 73 66 81 76 l 154 169 q 245 284 286 363 q 328 442 328 498 q 328 547 297 577 q 266 606 213 606 q 165 606 119 574 q 73 542 71 542 q 65 542 62 546 q 58 550 58 556 q 58 564 74 584 q 91 603 119 627 q 152 656 188 670 q 225 684 265 684 q 345 684 391 644 q 437 603 437 533 q 437 490 409 437 q 381 384 294 276 q 271 248 234 204 q 176 135 176 123 q 176 116 186 112 q 196 107 211 107 l 320 107 q 360 107 386 114 q 412 120 430 135 q 442 144 457 163 q 472 182 483 182 q 488 182 492 178 q 495 173 495 167 q 495 162 492 153 q 488 144 481 128 z"},"{":{"x_min":0,"x_max":500,"ha":500,"o":"m 415 712 q 353 711 329 686 q 306 660 306 583 l 306 516 q 306 406 279 366 q 251 326 177 310 q 251 294 279 254 q 306 214 306 104 l 306 37 q 306 -40 329 -65 q 352 -90 415 -91 l 415 -119 l 410 -119 q 302 -119 261 -83 q 220 -47 220 50 l 220 148 q 220 227 192 257 q 164 288 87 294 l 87 327 q 165 334 192 364 q 220 394 220 473 l 220 571 q 220 668 261 704 q 303 740 415 740 z"},"9":{"x_min":0,"x_max":541,"ha":541,"o":"m 394 441 q 394 527 353 587 q 312 646 253 646 q 195 646 165 609 q 135 572 135 501 q 135 410 172 354 q 210 299 271 299 q 329 299 362 336 q 394 374 394 441 z m 370 299 q 325 268 286 253 q 247 239 206 239 q 125 239 78 293 q 30 348 30 440 q 30 547 98 616 q 167 685 272 685 q 380 685 446 609 q 511 533 511 405 q 511 298 454 200 q 396 103 302 50 q 245 19 187 0 q 129 -19 95 -19 q 85 -19 80 -15 q 74 -11 74 -3 q 74 11 106 19 q 142 28 167 39 q 252 77 302 140 q 352 204 370 299 z"}," ":{"x_min":0,"x_max":270,"ha":270,"o":""},"I":{"x_min":0,"x_max":354,"ha":354,"o":"m 117 535 q 117 591 111 610 q 105 628 89 641 q 73 652 40 659 q 38 659 37 659 q 16 661 10 666 q 3 671 3 681 q 3 691 10 697 q 16 702 28 702 q 30 702 41 701 q 85 695 125 695 q 216 695 289 702 q 298 703 299 703 q 309 703 314 698 q 320 693 320 684 q 320 669 295 662 q 270 655 260 645 q 248 633 242 610 q 237 588 237 545 l 237 146 q 237 104 250 79 q 262 54 288 45 q 296 42 314 39 q 318 38 319 38 q 342 34 349 29 q 356 24 356 14 q 356 3 349 -2 q 342 -8 328 -8 q 317 -8 271 -3 q 224 1 189 1 q 153 1 108 -3 q 63 -8 55 -8 q 44 -8 37 -3 q 31 2 31 10 q 31 20 36 25 q 41 31 60 39 q 64 42 72 45 q 80 49 82 50 q 99 59 108 83 q 117 107 117 143 z"},"H":{"x_min":0,"x_max":806,"ha":806,"o":"m 112 535 q 112 585 106 604 q 100 624 85 638 q 76 646 64 651 q 52 656 30 659 l 29 659 q -2 665 -2 681 q -2 690 5 696 q 12 702 24 702 q 27 702 71 698 q 114 694 154 694 q 212 694 276 701 q 292 703 296 703 q 305 703 310 698 q 315 693 315 684 q 315 677 311 672 q 307 667 292 662 q 291 662 289 661 q 269 653 259 644 q 245 631 239 614 q 233 597 233 554 l 233 545 l 233 432 q 233 418 241 410 q 249 402 263 402 l 543 402 q 557 402 565 410 q 573 418 573 432 l 573 535 q 573 583 567 603 q 561 624 545 638 q 535 646 523 651 q 512 656 491 659 l 490 659 q 459 665 459 681 q 459 690 466 696 q 473 702 485 702 q 488 702 531 698 q 575 694 614 694 q 672 694 736 701 q 752 703 756 703 q 765 703 770 698 q 775 693 775 684 q 775 677 771 672 q 767 667 752 662 q 751 662 748 660 q 729 652 720 644 q 705 631 699 613 q 693 595 693 545 l 693 146 q 693 107 705 83 q 716 58 741 46 q 746 44 751 42 q 757 41 768 38 l 770 38 q 800 30 800 14 q 800 2 794 -3 q 789 -8 776 -8 q 770 -8 727 -3 q 684 1 648 1 q 610 1 564 -3 q 519 -8 511 -8 q 500 -8 493 -3 q 487 1 487 10 q 487 20 492 25 q 497 31 514 39 q 517 41 523 44 q 529 47 533 49 q 554 62 563 85 q 573 108 573 143 l 573 316 q 573 330 565 338 q 557 346 543 346 l 263 346 q 249 346 241 338 q 233 330 233 316 l 233 146 q 233 106 246 82 q 259 57 286 46 q 295 42 312 39 q 314 38 315 38 q 337 35 344 29 q 351 23 351 13 q 351 2 345 -3 q 339 -8 326 -8 q 317 -8 270 -3 q 224 1 187 1 q 149 1 103 -3 q 58 -8 50 -8 q 39 -8 32 -3 q 26 1 26 10 q 26 20 31 25 q 36 31 53 39 q 56 41 62 44 q 68 47 72 49 q 93 62 102 85 q 112 108 112 143 z"},"4":{"x_min":0,"x_max":541,"ha":541,"o":"m 117 273 l 290 273 q 298 273 302 278 q 306 283 306 294 l 306 531 q 306 536 304 538 q 303 540 300 540 q 295 540 276 519 q 257 498 213 442 l 153 367 q 119 324 110 308 q 100 292 100 282 q 100 277 104 275 q 108 273 117 273 z m 322 -64 q 320 -64 318 -65 q 315 -65 309 -65 q 302 -65 300 -62 q 297 -60 297 -52 q 297 -49 302 -21 q 306 7 306 34 l 306 170 q 306 181 301 186 q 296 191 283 191 l 45 191 q 25 191 19 196 q 13 200 13 213 q 13 247 152 422 l 171 447 q 294 603 335 646 q 375 690 392 690 q 398 690 401 684 q 403 679 403 655 l 403 297 q 403 288 406 286 q 408 284 417 284 l 452 284 q 462 284 473 307 q 483 330 493 330 q 500 330 504 324 q 508 318 508 306 q 508 284 502 254 q 497 225 492 212 q 487 200 478 196 q 469 191 441 191 l 414 191 q 407 191 405 189 q 403 188 403 182 l 403 174 l 403 -15 q 403 -33 398 -40 q 393 -47 372 -52 z"},"~":{"x_min":0,"x_max":833,"ha":833,"o":"m 747 293 q 697 258 651 241 q 604 224 561 224 q 540 224 516 228 q 492 232 468 241 q 456 245 431 254 q 327 290 275 290 q 235 290 190 271 q 145 253 87 212 l 87 303 q 139 338 186 356 q 232 373 276 373 q 306 373 337 367 q 368 361 419 344 q 426 342 440 336 q 520 308 562 308 q 604 308 648 326 q 693 344 747 383 z"},"D":{"x_min":0,"x_max":766,"ha":766,"o":"m 233 184 q 233 94 257 68 q 282 41 346 41 q 466 41 539 122 q 612 204 612 340 q 612 480 533 569 q 455 658 329 658 q 271 658 252 641 q 233 625 233 565 z m 112 545 q 112 593 103 613 q 93 633 69 647 q 56 654 28 659 q 0 663 0 679 q 0 689 8 695 q 15 700 29 700 q 33 700 67 697 q 102 694 132 694 q 157 694 185 695 q 213 697 255 700 q 258 700 264 701 q 317 704 340 704 q 532 704 635 620 q 738 536 738 382 q 738 216 624 105 q 510 -5 336 -5 q 316 -5 273 -2 q 229 1 206 1 q 121 1 57 -10 q 50 -11 49 -11 q 41 -11 34 -5 q 27 1 27 9 q 27 24 55 37 l 55 37 l 73 46 q 94 57 103 78 q 112 98 112 133 z"},"^":{"x_min":0,"x_max":1000,"ha":1000,"o":"m 552 714 l 797 438 l 746 438 l 499 632 l 252 438 l 201 438 l 447 714 z"},"0":{"x_min":0,"x_max":541,"ha":541,"o":"m 117 427 q 117 273 173 162 q 228 52 302 52 q 363 52 397 105 q 431 158 431 255 q 431 316 416 383 q 401 450 375 505 q 345 567 309 599 q 272 631 230 631 q 175 631 146 579 q 117 526 117 427 z m 28 302 q 28 469 101 577 q 174 685 281 685 q 378 685 446 595 q 514 506 514 372 q 514 301 496 232 q 478 163 444 108 q 406 47 358 16 q 310 -15 252 -15 q 154 -15 91 73 q 28 162 28 302 z"},"F":{"x_min":0,"x_max":553,"ha":553,"o":"m 112 535 q 112 585 106 604 q 100 624 85 638 q 76 646 64 651 q 52 656 30 659 l 29 659 q -2 665 -2 681 q -2 691 5 697 q 12 702 25 702 q 26 702 37 701 q 124 694 234 694 q 343 694 458 700 q 484 701 490 701 q 508 701 515 694 q 521 687 521 666 l 521 560 q 521 548 518 544 q 514 540 505 540 q 489 540 487 563 q 484 586 479 598 q 464 629 426 642 q 389 655 312 655 q 267 655 249 642 q 231 629 231 597 l 231 441 q 231 418 241 409 q 251 399 274 399 l 306 399 q 340 399 360 407 q 380 415 394 433 q 401 442 409 461 q 422 490 437 490 q 446 490 449 486 q 453 481 453 469 q 453 468 453 463 q 450 434 450 402 q 450 334 456 275 q 457 266 457 265 q 457 255 453 250 q 448 244 440 244 q 423 244 420 269 q 417 289 413 301 q 402 330 380 342 q 359 353 312 353 l 273 353 q 249 353 240 343 q 231 332 231 297 l 231 146 q 231 106 244 82 q 257 57 284 46 q 289 44 295 42 q 302 41 314 38 q 336 35 343 29 q 350 23 350 13 q 350 2 344 -3 q 337 -8 325 -8 q 316 -8 270 -3 q 223 1 187 1 q 149 1 103 -3 q 57 -8 50 -8 q 39 -8 32 -3 q 26 1 26 10 q 26 20 31 25 q 36 31 53 39 q 56 41 62 44 q 68 47 72 49 q 93 62 102 85 q 112 108 112 143 z"},"`":{"x_min":0,"x_max":500,"ha":500,"o":"m 336 480 l 300 480 l 153 570 q 129 584 121 595 q 112 605 112 619 q 112 635 123 646 q 134 657 149 657 q 161 657 174 649 q 188 641 201 627 z"},"k":{"x_min":0,"x_max":546,"ha":546,"o":"m 81 582 l 81 592 q 81 620 77 631 q 73 642 64 648 q 57 652 42 654 q 42 654 41 654 q 28 654 24 657 q 20 661 20 669 q 20 678 24 682 q 29 686 49 691 q 60 693 72 697 q 83 700 96 705 q 123 715 149 727 q 176 739 179 739 q 186 739 189 734 q 193 729 193 720 q 193 720 190 666 q 187 612 187 559 l 187 228 l 313 338 q 329 352 334 359 q 339 366 339 372 q 339 379 335 383 q 331 387 317 390 q 302 393 298 397 q 293 402 293 410 q 293 417 297 421 q 301 424 312 424 q 320 424 346 421 q 372 418 390 418 q 409 418 438 421 q 467 425 477 425 q 488 425 494 420 q 499 416 499 407 q 499 401 495 397 q 491 394 475 390 q 473 389 467 388 q 432 377 408 364 q 373 344 341 315 q 309 286 309 278 q 309 266 350 202 q 392 138 442 80 q 472 45 504 35 q 536 24 536 14 q 536 5 531 1 q 525 -3 512 -3 q 500 -3 477 0 q 454 2 442 2 q 433 2 417 0 q 400 -2 393 -2 q 378 -2 362 16 q 345 33 303 97 l 245 187 q 237 199 232 205 q 227 211 223 211 q 222 211 219 209 q 216 208 214 206 l 187 182 l 187 123 q 187 84 192 70 q 197 56 209 46 q 218 39 236 33 q 238 32 239 32 q 252 28 256 25 q 259 21 259 14 q 259 4 253 0 q 248 -5 237 -5 q 232 -5 202 -1 q 172 3 147 3 q 101 3 55 -4 q 47 -5 45 -5 q 37 -5 32 -1 q 27 3 27 10 q 27 19 43 29 l 44 30 l 44 30 q 81 53 81 97 l 81 115 z"},"u":{"x_min":0,"x_max":560,"ha":560,"o":"m 372 64 q 332 26 295 9 q 259 -9 221 -9 q 148 -9 113 42 q 77 93 77 196 l 77 302 q 77 345 73 360 q 68 374 57 381 q 55 382 52 384 q 48 385 40 386 q 23 389 17 394 q 11 399 11 408 q 11 417 16 421 q 21 425 30 425 q 32 425 38 424 q 43 424 47 424 q 98 424 154 434 q 170 436 174 436 q 181 436 185 432 q 188 428 188 419 q 188 416 187 404 q 183 354 183 310 l 183 211 q 183 126 206 91 q 229 56 281 56 q 326 56 349 78 q 372 100 372 142 l 372 313 q 372 348 368 361 q 363 374 353 381 q 351 382 347 384 q 344 385 336 386 q 318 389 312 394 q 306 399 306 408 q 306 417 311 421 q 315 425 325 425 q 327 425 333 424 q 339 424 343 424 q 394 424 450 434 q 466 436 470 436 q 477 436 480 432 q 483 428 483 419 q 483 417 482 410 q 479 362 479 310 l 479 121 q 479 85 483 74 q 487 62 498 56 q 506 52 522 50 l 523 50 q 538 49 542 45 q 547 42 547 34 q 547 22 537 18 q 528 13 489 12 q 485 11 481 11 q 478 11 469 11 q 448 10 422 3 q 396 -5 391 -5 q 380 -5 375 0 q 369 4 369 12 l 369 23 z"},"]":{"x_min":0,"x_max":394,"ha":394,"o":"m 44 -151 l 44 -112 l 130 -112 q 149 -112 156 -104 q 163 -97 163 -70 l 163 613 q 163 640 156 647 q 149 655 130 655 l 44 655 l 44 694 l 261 694 l 261 -151 z"},"U":{"x_min":0,"x_max":787,"ha":787,"o":"m 107 564 q 107 607 98 625 q 90 644 63 653 q 51 658 31 662 q 30 662 29 662 q 11 665 7 669 q 2 674 2 683 q 2 692 8 696 q 14 700 28 700 q 34 700 73 697 q 111 693 143 693 q 186 693 231 698 q 277 703 281 703 q 295 703 302 699 q 308 694 308 685 q 308 671 284 664 l 283 664 q 275 662 269 659 q 263 657 258 654 q 240 644 233 615 q 226 587 226 490 l 226 316 q 226 236 232 200 q 239 164 254 137 q 279 93 321 69 q 363 45 416 45 q 466 45 507 62 q 548 80 576 113 q 605 147 617 199 q 630 250 630 349 l 630 522 q 630 586 620 613 q 610 640 585 650 q 570 656 543 661 q 508 667 508 684 q 508 693 514 697 q 520 701 533 701 q 540 701 558 700 q 562 699 565 699 q 569 699 579 697 q 615 693 637 693 q 653 693 668 694 q 684 696 707 700 q 709 700 713 701 q 727 702 731 702 q 743 702 748 698 q 753 694 753 686 q 753 673 732 665 q 730 664 730 664 q 721 662 714 659 q 708 656 703 652 q 690 643 686 613 q 681 583 681 472 l 681 344 q 681 164 605 74 q 529 -16 377 -16 q 234 -16 170 62 q 107 140 107 320 z"},"o":{"x_min":0,"x_max":516,"ha":516,"o":"m 128 259 q 128 155 169 87 q 210 19 275 19 q 328 19 359 55 q 389 92 389 156 q 389 262 348 331 q 307 400 245 400 q 189 400 159 363 q 128 326 128 259 z m 26 203 q 26 301 94 368 q 161 436 257 436 q 362 436 426 375 q 490 315 490 216 q 490 116 422 50 q 354 -16 250 -16 q 152 -16 89 46 q 26 108 26 203 z"},"N":{"x_min":0,"x_max":796,"ha":796,"o":"m 117 262 l 117 513 q 117 562 110 591 q 103 621 87 636 q 76 647 64 653 q 51 659 32 660 q 32 660 31 660 q 8 664 8 680 q 8 692 12 697 q 17 701 28 701 q 33 701 38 701 q 44 700 55 699 q 66 697 74 696 q 82 695 88 695 q 97 695 107 696 q 117 697 133 699 q 150 700 159 701 q 167 701 174 701 q 201 701 232 663 l 236 659 l 580 246 q 593 230 604 222 q 614 213 620 213 q 627 213 631 224 q 634 236 634 261 l 634 516 q 634 574 625 601 q 616 627 595 641 q 573 655 540 662 q 507 668 507 683 q 507 692 512 697 q 518 701 529 701 q 537 701 546 700 q 555 700 565 698 q 579 696 594 696 q 609 695 626 695 q 644 695 663 696 q 683 697 709 699 q 721 701 731 701 q 742 702 750 702 q 761 702 766 698 q 770 694 770 684 q 770 670 750 662 q 729 655 719 647 q 701 633 693 611 q 686 590 685 532 l 679 25 q 679 3 676 -7 q 673 -17 666 -17 q 649 -17 619 19 q 613 26 610 30 l 199 516 q 192 524 185 530 q 178 535 175 535 q 169 535 166 525 q 163 514 163 493 l 163 260 q 163 151 170 113 q 178 75 196 56 q 209 42 247 36 l 248 36 q 271 33 278 27 q 285 22 285 12 q 285 0 281 -5 q 276 -9 259 -9 q 256 -9 221 -4 q 186 1 154 1 q 120 1 82 -3 q 44 -8 41 -8 q 32 -8 27 -2 q 22 4 22 16 q 22 28 45 35 l 46 35 q 46 35 49 36 q 77 46 87 59 q 102 77 109 129 q 117 182 117 262 z"},"+":{"x_min":0,"x_max":833,"ha":833,"o":"m 458 596 l 458 339 l 709 339 l 709 258 l 458 258 l 458 0 l 375 0 l 375 258 l 124 258 l 124 339 l 375 339 l 375 596 z"},"G":{"x_min":0,"x_max":769,"ha":769,"o":"m 678 134 q 678 125 679 115 q 679 104 679 101 q 679 83 646 67 q 635 62 628 58 q 553 21 482 1 q 411 -19 352 -19 q 206 -19 116 73 q 27 164 27 314 q 27 483 130 597 q 232 711 385 711 q 464 711 544 679 q 624 648 628 648 q 643 648 651 660 q 659 672 667 672 q 674 672 677 667 q 681 661 681 650 q 681 647 680 637 q 677 595 677 557 q 677 530 679 502 q 681 473 681 472 q 681 458 678 454 q 674 450 664 450 q 652 450 645 475 q 635 506 623 531 q 594 589 526 630 q 458 670 387 670 q 282 670 219 590 q 156 510 156 375 q 156 219 220 125 q 285 31 391 31 q 438 31 479 47 q 521 63 539 87 q 547 99 553 127 q 558 155 558 191 q 558 233 544 254 q 530 274 494 283 q 487 285 474 286 q 471 287 469 287 q 468 287 467 287 q 441 292 441 307 q 441 317 447 322 q 453 327 466 327 q 477 327 521 323 q 566 318 599 318 q 649 318 706 324 q 721 325 725 325 q 738 325 744 321 q 750 316 750 308 q 750 294 727 287 l 727 287 q 718 285 712 282 q 706 279 701 275 q 688 265 683 247 q 678 229 678 195 z"},"q":{"x_min":0,"x_max":513,"ha":513,"o":"m 344 91 l 344 297 q 344 320 341 333 q 338 345 331 354 q 315 373 288 385 q 261 398 233 398 q 177 398 147 359 q 116 320 116 249 q 116 169 158 114 q 200 58 257 58 q 276 58 296 65 q 315 73 344 91 z m 344 54 q 301 19 264 3 q 228 -12 189 -12 q 120 -12 75 42 q 31 96 31 182 q 31 292 94 363 q 157 433 254 433 q 323 433 382 402 q 393 397 395 397 q 403 397 417 423 q 432 449 443 449 q 449 449 451 445 q 454 440 454 430 q 454 428 453 399 q 452 370 452 342 l 452 -119 q 452 -136 458 -147 q 464 -158 481 -169 q 490 -174 493 -179 q 496 -183 496 -188 q 496 -195 492 -199 q 488 -204 481 -204 q 480 -204 474 -203 q 434 -198 379 -198 q 351 -198 321 -201 q 291 -204 289 -204 q 276 -204 270 -199 q 263 -194 263 -185 q 263 -171 287 -166 l 287 -166 q 294 -165 300 -163 q 306 -162 312 -159 q 328 -151 336 -136 q 344 -121 344 -98 z"},"d":{"x_min":0,"x_max":519,"ha":519,"o":"m 346 332 q 324 361 294 378 q 264 394 234 394 q 180 394 149 354 q 119 314 119 243 q 119 165 161 111 q 202 57 260 57 q 295 57 321 71 q 346 85 346 107 z m 349 56 q 310 19 276 3 q 241 -13 200 -13 q 124 -13 79 37 q 33 88 33 171 q 33 287 96 359 q 158 431 257 431 q 285 431 307 426 q 329 420 348 409 l 348 578 q 348 618 343 629 q 338 639 324 645 q 317 648 305 650 q 305 650 304 650 q 304 650 302 650 q 283 653 283 666 q 283 674 288 678 q 292 682 312 686 q 315 687 321 688 q 340 694 351 698 q 380 708 410 723 q 440 738 443 738 q 449 738 453 735 q 457 732 457 728 q 457 727 456 719 q 451 683 451 647 l 451 122 q 451 87 457 75 q 462 63 477 56 q 480 54 484 53 q 488 52 495 51 q 496 51 497 51 q 514 47 514 37 q 514 22 489 20 q 472 19 460 16 q 416 7 374 -10 q 364 -14 362 -14 q 354 -14 352 -9 q 349 -4 349 8 z"},"1":{"x_min":0,"x_max":541,"ha":541,"o":"m 219 138 l 219 520 q 219 551 212 562 q 205 573 186 573 q 171 573 151 567 q 131 561 127 561 q 121 561 116 567 q 111 573 111 579 q 111 596 167 609 q 210 620 237 629 q 262 638 290 660 q 317 682 324 682 q 328 682 331 677 q 333 673 333 665 q 333 664 332 654 q 326 615 326 578 l 326 138 q 326 69 346 51 q 367 33 417 33 q 431 33 434 30 q 437 26 437 16 q 437 7 431 2 q 424 -2 410 -2 q 407 -2 355 1 q 303 4 254 4 q 206 4 148 -1 q 131 -3 127 -3 q 122 -3 119 2 q 116 7 116 15 q 116 31 143 34 q 166 38 181 42 q 203 48 211 66 q 219 83 219 138 z"},"5":{"x_min":0,"x_max":541,"ha":541,"o":"m 93 371 l 134 638 q 138 665 145 669 q 151 674 175 674 l 343 674 q 392 674 414 692 q 436 710 439 710 q 443 710 447 707 q 450 705 450 701 q 450 692 446 681 q 445 679 445 678 l 421 604 q 415 585 407 579 q 398 573 368 573 l 195 573 q 177 573 169 564 q 160 556 156 532 l 144 459 q 143 451 143 445 q 142 439 142 436 q 142 427 144 425 q 146 422 154 422 q 158 422 189 427 q 221 431 248 431 q 350 431 403 383 q 456 335 456 244 q 456 131 378 59 q 300 -14 177 -14 q 117 -14 71 4 q 25 21 25 41 q 25 46 29 49 q 34 52 41 52 q 45 52 83 40 q 122 29 156 29 q 241 29 296 77 q 350 125 350 199 q 350 269 310 303 q 271 338 189 338 q 165 338 139 335 q 113 332 111 332 q 100 332 95 335 q 91 338 91 347 q 91 355 91 360 q 92 366 93 371 z"}}}
